0, 0, Header, 1, 2, 256,
1, 0, Start_track,,,,
1, 0, Time_signature, 6, 2, 72, 8
1, 0, Key_signature, 0," ""major""",,
1, 0, Tempo, 375000,,,
1, 0, Title_t," "" """"Third Mode Melody""""""",,,
1, 0, Text_t," "" """"Thomas Tallis""""""",,,
1, 1536, Time_signature, 12, 2, 24, 8
1, 4608, Time_signature, 6, 2, 72, 8
1, 6144, Time_signature, 2, 2, 24, 8
1, 6656, Time_signature, 12, 2, 24, 8
1, 9728, Time_signature, 6, 2, 72, 8
1, 12800, Time_signature, 12, 2, 24, 8
1, 15872, Time_signature, 6, 2, 72, 8
1, 17408, Time_signature, 2, 2, 24, 8
1, 17920, Time_signature, 12, 2, 24, 8
1, 20992, Time_signature, 6, 2, 72, 8
1, 22528, Time_signature, 2, 2, 24, 8
1, 23040, Time_signature, 12, 2, 24, 8
1, 26112, Time_signature, 10, 2, 24, 8
1, 28672, Time_signature, 2, 2, 24, 8
1, 29184, Time_signature, 12, 2, 24, 8
1, 32256, Time_signature, 6, 2, 72, 8
1, 33792, Time_signature, 2, 2, 24, 8
1, 34304, Time_signature, 12, 2, 24, 8
1, 37376, Time_signature, 10, 2, 24, 8
1, 39935, Tempo, 500000,,,
1, 39936, Time_signature, 2, 2, 24, 8
1, 40448, Time_signature, 8, 2, 24, 8
1, 42496, Tempo, 750000,,,
1, 42496, Time_signature, 6, 2, 72, 8
1, 44032, Tempo, 375000,,,
1, 44032, Time_signature, 4, 2, 24, 8
1, 44032, Time_signature, 6, 2, 72, 8
1, 45568, Time_signature, 12, 2, 24, 8
1, 48640, Time_signature, 6, 2, 72, 8
1, 50176, Time_signature, 2, 2, 24, 8
1, 50688, Time_signature, 12, 2, 24, 8
1, 53760, Time_signature, 6, 2, 72, 8
1, 56832, Time_signature, 12, 2, 24, 8
1, 59904, Time_signature, 6, 2, 72, 8
1, 61440, Time_signature, 2, 2, 24, 8
1, 61952, Time_signature, 12, 2, 24, 8
1, 65024, Time_signature, 6, 2, 72, 8
1, 66560, Time_signature, 2, 2, 24, 8
1, 67072, Time_signature, 12, 2, 24, 8
1, 70144, Time_signature, 10, 2, 24, 8
1, 72704, Time_signature, 2, 2, 24, 8
1, 73216, Time_signature, 12, 2, 24, 8
1, 76288, Time_signature, 6, 2, 72, 8
1, 77824, Time_signature, 2, 2, 24, 8
1, 78336, Time_signature, 12, 2, 24, 8
1, 81408, Time_signature, 10, 2, 24, 8
1, 83967, Tempo, 500000,,,
1, 83968, Time_signature, 2, 2, 24, 8
1, 84480, Time_signature, 8, 2, 24, 8
1, 86528, Tempo, 750000,,,
1, 86528, Time_signature, 6, 2, 72, 8
1, 86529, End_track,,,,
2, 0, Start_track,,,,
2, 0, Program_c, 0, 19,,
2, 0, Control_c, 0, 121, 0,
2, 0, Control_c, 0, 64, 0,
2, 0, Control_c, 0, 91, 60,
2, 0, Control_c, 0, 10, 64,
2, 0, Control_c, 0, 7, 100,
2,0, Note_on_c, 0,71.0,69,
2, 0, Control_c, 0, 121, 0,
2, 0, Control_c, 0, 64, 0,
2, 0, Control_c, 0, 91, 60,
2, 0, Control_c, 0, 10, 64,
2, 0, Control_c, 0, 7, 100,
2, 0, Title_t," "" """"Organ""""""",,,
2,0, Note_on_c, 0,65.0,68,
2,0, Note_on_c, 0,59.0,67,
2,512, Note_off_c, 0,71.0,0,
2,512, Note_off_c, 0,59.0,0,
2,512, Note_on_c, 0,47.0,81,
2,512, Note_off_c, 0,65.0,0,
2,512, Note_on_c, 0,71.0,80,
2,512, Note_on_c, 0,65.0,76,
2,512, Note_off_c, 0,65.0,0,
2,1024, Note_on_c, 0,59.0,76,
2,1024, Note_on_c, 0,65.0,77,
2,1024, Note_off_c, 0,59.0,0,
2,1024, Note_on_c, 0,66.0,76,
2,1024, Note_off_c, 0,71.0,0,
2,1024, Note_on_c, 0,59.0,77,
2,1024, Note_on_c, 0,79.0,78,
2,1024, Note_off_c, 0,47.0,0,
2,1536, Note_off_c, 0,59.0,0,
2,1536, Note_on_c, 0,71.0,79,
2,1536, Note_off_c, 0,65.0,0,
2,1536, Note_on_c, 0,59.0,79,
2,1536, Note_off_c, 0,59.0,0,
2,1536, Note_on_c, 0,65.0,79,
2,1536, Note_off_c, 0,65.0,0,
2,1536, Note_on_c, 0,59.0,78,
2,3072, Note_off_c, 0,59.0,0,
2,3072, Note_on_c, 0,59.0,77,
2,3072, Note_off_c, 0,71.0,0,
2,3072, Note_on_c, 0,71.0,77,
2,3072, Note_on_c, 0,65.0,78,
2,3072, Note_off_c, 0,59.0,0,
2,3072, Note_off_c, 0,65.0,0,
2,3072, Note_on_c, 0,59.0,80,
2,3584, Note_off_c, 0,59.0,0,
2,3584, Note_on_c, 0,59.0,80,
2,3584, Note_on_c, 0,65.0,76,
2,3584, Note_on_c, 0,53.0,70,
2,3584, Note_off_c, 0,71.0,0,
2,3584, Note_off_c, 0,59.0,0,
2,3584, Note_on_c, 0,68.0,72,
2,3584, Note_on_c, 0,59.0,76,
2,4096, Note_off_c, 0,68.0,0,
2,4096, Note_off_c, 0,53.0,0,
2,4096, Note_off_c, 0,59.0,0,
2,4096, Note_on_c, 0,59.0,79,
2,4096, Note_off_c, 0,59.0,0,
2,4096, Note_on_c, 0,54.0,81,
2,4096, Note_on_c, 0,59.0,79,
2,4096, Note_off_c, 0,59.0,0,
2,4608, Note_on_c, 0,71.0,74,
2,4608, Note_on_c, 0,59.0,83,
2,4608, Note_on_c, 0,60.0,76,
2,4608, Note_off_c, 0,59.0,0,
2,4608, Note_on_c, 0,59.0,76,
2,4608, Note_off_c, 0,66.0,0,
2,4608, Note_off_c, 0,71.0,0,
2,4608, Note_off_c, 0,65.0,0,
2,6144, Note_on_c, 0,65.0,76,
2,6144, Note_on_c, 0,58.0,73,
2,6144, Note_off_c, 0,59.0,0,
2,6144, Note_on_c, 0,71.0,85,
2,6144, Note_off_c, 0,71.0,0,
2,6144, Note_on_c, 0,68.0,87,
2,6144, Note_off_c, 0,65.0,0,
2,6144, Note_on_c, 0,71.0,74,
2,6656, Note_on_c, 0,65.0,74,
2,6656, Note_off_c, 0,65.0,0,
2,6656, Note_on_c, 0,66.0,82,
2,6656, Note_on_c, 0,59.0,75,
2,6656, Note_off_c, 0,71.0,0,
2,6656, Note_off_c, 0,59.0,0,
2,6656, Note_on_c, 0,71.0,76,
2,6656, Note_on_c, 0,65.0,73,
2,8192, Note_off_c, 0,65.0,0,
2,8192, Note_on_c, 0,53.0,79,
2,8192, Note_on_c, 0,59.0,73,
2,8192, Note_off_c, 0,71.0,0,
2,8192, Note_off_c, 0,59.0,0,
2,8192, Note_on_c, 0,59.0,71,
2,8192, Note_on_c, 0,71.0,74,
2,8192, Note_off_c, 0,59.0,0,
2,8704, Note_on_c, 0,65.0,77,
2,8704, Note_off_c, 0,65.0,0,
2,8704, Note_on_c, 0,59.0,79,
2,8704, Note_on_c, 0,47.0,80,
2,8704, Note_off_c, 0,71.0,0,
2,8704, Note_on_c, 0,71.0,81,
2,8704, Note_off_c, 0,59.0,0,
2,8704, Note_on_c, 0,59.0,81,
2,9216, Note_on_c, 0,41.0,80,
2,9216, Note_on_c, 0,65.0,78,
2,9216, Note_off_c, 0,65.0,0,
2,9216, Note_on_c, 0,65.0,75,
2,9216, Note_off_c, 0,71.0,0,
2,9216, Note_off_c, 0,65.0,0,
2,9216, Note_off_c, 0,66.0,0,
2,9216, Note_on_c, 0,65.0,74,
2,9728, Note_on_c, 0,71.0,79,
2,9728, Note_off_c, 0,59.0,0,
2,9728, Note_on_c, 0,75.0,79,
2,9728, Note_on_c, 0,59.0,79,
2,9728, Note_off_c, 0,59.0,0,
2,9728, Note_off_c, 0,65.0,0,
2,9728, Note_off_c, 0,71.0,0,
2,9728, Note_on_c, 0,71.0,79,
2,11264, Note_on_c, 0,65.0,66,
2,11264, Note_on_c, 0,59.0,75,
2,11264, Note_off_c, 0,71.0,0,
2,11264, Note_off_c, 0,59.0,0,
2,11264, Note_on_c, 0,59.0,81,
2,11264, Note_off_c, 0,59.0,0,
2,11264, Note_on_c, 0,59.0,81,
2,11776, Note_off_c, 0,53.0,0,
2,11776, Note_off_c, 0,59.0,0,
2,11776, Note_on_c, 0,59.0,78,
2,11776, Note_off_c, 0,59.0,0,
2,11776, Note_off_c, 0,65.0,0,
2,11776, Note_on_c, 0,66.0,77,
2,11776, Note_on_c, 0,65.0,76,
2,12288, Note_off_c, 0,68.0,0,
2,12288, Note_on_c, 0,59.0,77,
2,12288, Note_on_c, 0,71.0,77,
2,12288, Note_off_c, 0,59.0,0,
2,12288, Note_off_c, 0,65.0,0,
2,12288, Note_on_c, 0,59.0,78,
2,12288, Note_off_c, 0,59.0,0,
2,12288, Note_off_c, 0,54.0,0,
2,12800, Note_on_c, 0,59.0,79,
2,12800, Note_off_c, 0,59.0,0,
2,12800, Note_on_c, 0,54.0,80,
2,12800, Note_off_c, 0,71.0,0,
2,12800, Note_on_c, 0,71.0,80,
2,12800, Note_on_c, 0,65.0,79,
2,12800, Note_off_c, 0,65.0,0,
2,12800, Note_off_c, 0,71.0,0,
2,14336, Note_on_c, 0,59.0,78,
2,14336, Note_on_c, 0,67.0,70,
2,14336, Note_off_c, 0,59.0,0,
2,14336, Note_on_c, 0,59.0,67,
2,14336, Note_off_c, 0,66.0,0,
2,14336, Note_on_c, 0,71.0,77,
2,14336, Note_on_c, 0,65.0,82,
2,14336, Note_off_c, 0,65.0,0,
2,14848, Note_off_c, 0,59.0,0,
2,14848, Note_on_c, 0,59.0,78,
2,14848, Note_on_c, 0,66.0,74,
2,14848, Note_off_c, 0,71.0,0,
2,14848, Note_on_c, 0,68.0,74,
2,14848, Note_on_c, 0,55.0,75,
2,14848, Note_off_c, 0,66.0,0,
2,14848, Note_on_c, 0,71.0,75,
2,15360, Note_off_c, 0,68.0,0,
2,15360, Note_on_c, 0,66.0,76,
2,15360, Note_on_c, 0,70.0,75,
2,15360, Note_on_c, 0,73.0,74,
2,15360, Note_off_c, 0,54.0,0,
2,15360, Note_on_c, 0,57.0,77,
2,15360, Note_off_c, 0,59.0,0,
2,15360, Note_on_c, 0,69.0,83,
2,15872, Note_off_c, 0,60.0,0,
2,15872, Note_on_c, 0,59.0,74,
2,15872, Note_off_c, 0,59.0,0,
2,15872, Note_on_c, 0,54.0,75,
2,15872, Note_off_c, 0,66.0,0,
2,15872, Note_on_c, 0,65.0,74,
2,15872, Note_on_c, 0,59.0,75,
2,15872, Note_off_c, 0,65.0,0,
2,17408, Note_on_c, 0,66.0,88,
2,17408, Note_off_c, 0,59.0,0,
2,17408, Note_off_c, 0,66.0,0,
2,17408, Note_on_c, 0,59.0,81,
2,17408, Note_on_c, 0,65.0,70,
2,17408, Note_off_c, 0,59.0,0,
2,17408, Note_off_c, 0,71.0,0,
2,17408, Note_off_c, 0,65.0,0,
2,17920, Note_on_c, 0,65.0,71,
2,17920, Note_off_c, 0,47.0,0,
2,17920, Note_off_c, 0,65.0,0,
2,17920, Note_on_c, 0,59.0,72,
2,17920, Note_off_c, 0,59.0,0,
2,17920, Note_on_c, 0,39.0,76,
2,17920, Note_on_c, 0,59.0,78,
2,17920, Note_off_c, 0,58.0,0,
2,19456, Note_on_c, 0,71.0,76,
2,19456, Note_off_c, 0,70.0,0,
2,19456, Note_off_c, 0,59.0,0,
2,19456, Note_on_c, 0,65.0,74,
2,19456, Note_on_c, 0,59.0,76,
2,19456, Note_off_c, 0,71.0,0,
2,19456, Note_on_c, 0,71.0,79,
2,19456, Note_off_c, 0,65.0,0,
2,19968, Note_on_c, 0,66.0,80,
2,19968, Note_on_c, 0,68.0,79,
2,19968, Note_off_c, 0,66.0,0,
2,19968, Note_on_c, 0,65.0,77,
2,19968, Note_off_c, 0,65.0,0,
2,19968, Note_off_c, 0,71.0,0,
2,19968, Note_off_c, 0,59.0,0,
2,19968, Note_on_c, 0,65.0,75,
2,20480, Note_off_c, 0,65.0,0,
2,20480, Note_on_c, 0,60.0,71,
2,20480, Note_on_c, 0,59.0,67,
2,20480, Note_on_c, 0,65.0,65,
2,20480, Note_on_c, 0,71.0,74,
2,20480, Note_off_c, 0,59.0,0,
2,20480, Note_on_c, 0,70.0,75,
2,20480, Note_on_c, 0,59.0,78,
2,20992, Note_off_c, 0,65.0,0,
2,20992, Note_off_c, 0,71.0,0,
2,20992, Note_off_c, 0,59.0,0,
2,20992, Note_on_c, 0,59.0,83,
2,20992, Note_on_c, 0,65.0,79,
2,20992, Note_off_c, 0,65.0,0,
2,20992, Note_off_c, 0,54.0,0,
2,20992, Note_on_c, 0,66.0,82,
2,22528, Note_off_c, 0,59.0,0,
2,22528, Note_on_c, 0,65.0,79,
2,22528, Note_on_c, 0,59.0,73,
2,22528, Note_off_c, 0,66.0,0,
2,22528, Note_on_c, 0,71.0,77,
2,22528, Note_off_c, 0,59.0,0,
2,22528, Note_off_c, 0,67.0,0,
2,22528, Note_on_c, 0,62.0,80,
2,23040, Note_off_c, 0,65.0,0,
2,23040, Note_on_c, 0,59.0,80,
2,23040, Note_on_c, 0,65.0,77,
2,23040, Note_off_c, 0,65.0,0,
2,23040, Note_on_c, 0,65.0,74,
2,23040, Note_off_c, 0,59.0,0,
2,23040, Note_off_c, 0,71.0,0,
2,23040, Note_on_c, 0,59.0,73,
2,23552, Note_off_c, 0,65.0,0,
2,23562, Note_on_c, 0,71.0,76,
2,23808, Note_off_c, 0,71.0,0,
2,23808, Note_off_c, 0,59.0,0,
2,23823, Note_on_c, 0,65.0,81,
2,23823, Note_on_c, 0,71.0,76,
2,24012, Note_off_c, 0,71.0,0,
2,24038, Note_on_c, 0,59.0,72,
2,24051, Note_off_c, 0,68.0,0,
2,24051, Note_on_c, 0,71.0,154,
2, 88065, End_track,,,,
0, 0, End_of_file,,,,
