0, 0, Header, 1, 2, 256,
1, 0, Start_track,,,,
1, 0, Time_signature, 4, 2, 24, 8
1, 0, Key_signature, -3," ""major""",,
1, 0, Tempo, 705881,,,
1, 0, Title_t," ""Shall we Gather at the River""",,,
1, 0, Text_t," ""Robert Lowry""",,,
1, 16384, Tempo, 705881,,,
1, 16384, Tempo, 705881,,,
1, 16385, End_track,,,,
2, 0, Start_track,,,,
2, 0, Program_c, 0, 0,,
2, 0, Control_c, 0, 121, 0,
2, 0, Control_c, 0, 64, 0,
2, 0, Control_c, 0, 91, 45,
2, 0, Control_c, 0, 10, 76,
2, 0, Control_c, 0, 7, 100,
2,0, Note_on_c, 0,69.0,75,
2,0, Note_on_c, 0,86.0,74,
2, 0, Control_c, 0, 121, 0,
2, 0, Control_c, 0, 64, 0,
2, 0, Control_c, 0, 91, 50,
2, 0, Control_c, 0, 10, 51,
2, 0, Control_c, 0, 7, 95,
2, 0, Title_t," ""Piano""",,,
2,0, Note_on_c, 0,44.0,74,
2,0, Note_on_c, 0,62.0,73,
2,256, Note_on_c, 0,46.0,73,
2,256, Note_on_c, 0,59.0,76,
2,256, Note_off_c, 0,86.0,0,
2,256, Note_on_c, 0,51.0,81,
2,256, Note_on_c, 0,61.0,82,
2,256, Note_on_c, 0,81.0,80,
2,256, Note_on_c, 0,84.0,78,
2,256, Note_on_c, 0,55.0,77,
2,512, Note_off_c, 0,44.0,0,
2,512, Note_on_c, 0,67.0,76,
2,512, Note_on_c, 0,78.0,75,
2,512, Note_on_c, 0,44.0,74,
2,512, Note_on_c, 0,57.0,74,
2,512, Note_on_c, 0,31.0,74,
2,512, Note_on_c, 0,32.0,77,
2,512, Note_off_c, 0,69.0,0,
2,704, Note_on_c, 0,49.0,80,
2,704, Note_on_c, 0,41.0,77,
2,704, Note_on_c, 0,70.0,77,
2,704, Note_off_c, 0,41.0,0,
2,704, Note_on_c, 0,42.0,78,
2,704, Note_off_c, 0,55.0,0,
2,704, Note_off_c, 0,59.0,0,
2,704, Note_off_c, 0,84.0,0,
2,768, Note_off_c, 0,32.0,0,
2,768, Note_on_c, 0,52.0,79,
2,768, Note_on_c, 0,47.0,76,
2,768, Note_off_c, 0,57.0,0,
2,768, Note_on_c, 0,59.0,72,
2,768, Note_on_c, 0,39.0,76,
2,768, Note_on_c, 0,43.0,81,
2,768, Note_on_c, 0,77.0,82,
2,960, Note_off_c, 0,39.0,0,
2,960, Note_on_c, 0,41.0,85,
2,960, Note_off_c, 0,67.0,0,
2,960, Note_off_c, 0,42.0,0,
2,960, Note_on_c, 0,58.0,79,
2,960, Note_on_c, 0,37.0,69,
2,960, Note_on_c, 0,32.0,71,
2,960, Note_off_c, 0,49.0,0,
2,1024, Note_off_c, 0,59.0,0,
2,1024, Note_off_c, 0,52.0,0,
2,1024, Note_on_c, 0,36.0,75,
2,1024, Note_off_c, 0,31.0,0,
2,1024, Note_off_c, 0,32.0,0,
2,1024, Note_off_c, 0,41.0,0,
2,1024, Note_on_c, 0,38.0,76,
2,1024, Note_off_c, 0,43.0,0,
2,1536, Note_on_c, 0,33.0,81,
2,1536, Note_on_c, 0,71.0,80,
2,1536, Note_on_c, 0,80.0,73,
2,1536, Note_on_c, 0,82.0,75,
2,1536, Note_on_c, 0,41.0,80,
2,1536, Note_off_c, 0,33.0,0,
2,1536, Note_on_c, 0,31.0,81,
2,1536, Note_off_c, 0,71.0,0,
2,2048, Note_on_c, 0,54.0,76,
2,2048, Note_on_c, 0,55.0,74,
2,2048, Note_off_c, 0,55.0,0,
2,2048, Note_on_c, 0,73.0,75,
2,2048, Note_off_c, 0,36.0,0,
2,2048, Note_on_c, 0,84.0,76,
2,2048, Note_off_c, 0,82.0,0,
2,2048, Note_on_c, 0,72.0,77,
2,2304, Note_on_c, 0,68.0,78,
2,2304, Note_off_c, 0,38.0,0,
2,2304, Note_on_c, 0,57.0,79,
2,2304, Note_on_c, 0,67.0,79,
2,2304, Note_off_c, 0,68.0,0,
2,2304, Note_off_c, 0,51.0,0,
2,2304, Note_off_c, 0,81.0,0,
2,2304, Note_on_c, 0,40.0,73,
2,2560, Note_on_c, 0,38.0,72,
2,2560, Note_on_c, 0,79.0,72,
2,2560, Note_off_c, 0,79.0,0,
2,2560, Note_on_c, 0,75.0,72,
2,2560, Note_on_c, 0,33.0,73,
2,2560, Note_on_c, 0,76.0,74,
2,2560, Note_off_c, 0,57.0,0,
2,2560, Note_off_c, 0,37.0,0,
2,2752, Note_on_c, 0,69.0,73,
2,2752, Note_off_c, 0,40.0,0,
2,2752, Note_on_c, 0,81.0,71,
2,2752, Note_on_c, 0,56.0,74,
2,2752, Note_off_c, 0,46.0,0,
2,2752, Note_off_c, 0,73.0,0,
2,2752, Note_on_c, 0,71.0,76,
2,2752, Note_on_c, 0,53.0,68,
2,2816, Note_on_c, 0,83.0,62,
2,2816, Note_off_c, 0,76.0,0,
2,2816, Note_on_c, 0,82.0,66,
2,2816, Note_on_c, 0,55.0,68,
2,2816, Note_off_c, 0,56.0,0,
2,2816, Note_on_c, 0,49.0,78,
2,2816, Note_on_c, 0,52.0,89,
2,2816, Note_off_c, 0,47.0,0,
2,3008, Note_on_c, 0,32.0,82,
2,3008, Note_off_c, 0,53.0,0,
2,3008, Note_off_c, 0,72.0,0,
2,3008, Note_off_c, 0,31.0,0,
2,3008, Note_off_c, 0,67.0,0,
2,3008, Note_on_c, 0,48.0,77,
2,3008, Note_off_c, 0,44.0,0,
2,3008, Note_on_c, 0,56.0,74,
2,3072, Note_off_c, 0,78.0,0,
2,3072, Note_off_c, 0,82.0,0,
2,3072, Note_on_c, 0,66.0,71,
2,3072, Note_on_c, 0,74.0,76,
2,3072, Note_on_c, 0,42.0,79,
2,3072, Note_off_c, 0,80.0,0,
2,3072, Note_off_c, 0,42.0,0,
2,3072, Note_on_c, 0,64.0,75,
2,3584, Note_on_c, 0,37.0,71,
2,3584, Note_on_c, 0,50.0,72,
2,3584, Note_on_c, 0,82.0,73,
2,3584, Note_on_c, 0,46.0,72,
2,3584, Note_off_c, 0,69.0,0,
2,3584, Note_on_c, 0,72.0,71,
2,3584, Note_on_c, 0,51.0,72,
2,3584, Note_on_c, 0,36.0,74,
2,4096, Note_on_c, 0,31.0,75,
2,4096, Note_off_c, 0,38.0,0,
2,4096, Note_off_c, 0,41.0,0,
2,4096, Note_on_c, 0,35.0,72,
2,4096, Note_off_c, 0,52.0,0,
2,4096, Note_on_c, 0,86.0,70,
2,4096, Note_off_c, 0,61.0,0,
2,4096, Note_off_c, 0,35.0,0,
2,4352, Note_on_c, 0,44.0,73,
2,4352, Note_off_c, 0,84.0,0,
2,4352, Note_off_c, 0,58.0,0,
2,4352, Note_off_c, 0,49.0,0,
2,4352, Note_on_c, 0,42.0,74,
2,4352, Note_on_c, 0,69.0,81,
2,4352, Note_on_c, 0,35.0,82,
2,4352, Note_on_c, 0,39.0,80,
2,4608, Note_off_c, 0,48.0,0,
2,4608, Note_off_c, 0,44.0,0,
2,4608, Note_off_c, 0,64.0,0,
2,4608, Note_on_c, 0,38.0,80,
2,4608, Note_on_c, 0,58.0,81,
2,4608, Note_off_c, 0,66.0,0,
2,4608, Note_on_c, 0,48.0,79,
2,4608, Note_off_c, 0,77.0,0,
2,4800, Note_off_c, 0,86.0,0,
2,4800, Note_on_c, 0,41.0,77,
2,4800, Note_off_c, 0,41.0,0,
2,4800, Note_off_c, 0,37.0,0,
2,4800, Note_off_c, 0,55.0,0,
2,4800, Note_off_c, 0,83.0,0,
2,4800, Note_off_c, 0,70.0,0,
2,4800, Note_off_c, 0,58.0,0,
2,4864, Note_on_c, 0,76.0,78,
2,4864, Note_off_c, 0,33.0,0,
2,4864, Note_off_c, 0,50.0,0,
2,4864, Note_on_c, 0,77.0,80,
2,4864, Note_on_c, 0,50.0,82,
2,4864, Note_on_c, 0,64.0,85,
2,4864, Note_on_c, 0,33.0,87,
2,4864, Note_on_c, 0,83.0,76,
2,5056, Note_off_c, 0,81.0,0,
2,5056, Note_off_c, 0,35.0,0,
2,5056, Note_off_c, 0,82.0,0,
2,5056, Note_on_c, 0,41.0,70,
2,5056, Note_on_c, 0,78.0,73,
2,5056, Note_off_c, 0,51.0,0,
2,5056, Note_off_c, 0,56.0,0,
2,5056, Note_off_c, 0,77.0,0,
2,5120, Note_off_c, 0,36.0,0,
2,5120, Note_off_c, 0,62.0,0,
2,5120, Note_on_c, 0,47.0,75,
2,5120, Note_off_c, 0,83.0,0,
2,5120, Note_on_c, 0,67.0,74,
2,5120, Note_on_c, 0,68.0,71,
2,5120, Note_off_c, 0,31.0,0,
2,5120, Note_on_c, 0,52.0,75,
2,5632, Note_on_c, 0,86.0,79,
2,5632, Note_on_c, 0,73.0,79,
2,5632, Note_off_c, 0,32.0,0,
2,5632, Note_off_c, 0,38.0,0,
2,5632, Note_on_c, 0,45.0,80,
2,5632, Note_on_c, 0,56.0,80,
2,5632, Note_on_c, 0,35.0,78,
2,5632, Note_on_c, 0,80.0,76,
2,5888, Note_on_c, 0,58.0,75,
2,5888, Note_off_c, 0,69.0,0,
2,5888, Note_on_c, 0,83.0,76,
2,5888, Note_off_c, 0,75.0,0,
2,5888, Note_off_c, 0,41.0,0,
2,5888, Note_off_c, 0,68.0,0,
2,5888, Note_off_c, 0,73.0,0,
2,5888, Note_on_c, 0,37.0,77,
2,6016, Note_off_c, 0,45.0,0,
2,6016, Note_off_c, 0,67.0,0,
2,6016, Note_on_c, 0,45.0,76,
2,6016, Note_on_c, 0,32.0,74,
2,6016, Note_on_c, 0,51.0,75,
2,6016, Note_on_c, 0,65.0,78,
2,6016, Note_off_c, 0,56.0,0,
2,6016, Note_on_c, 0,73.0,81,
2,6144, Note_off_c, 0,72.0,0,
2,6144, Note_on_c, 0,36.0,82,
2,6144, Note_on_c, 0,68.0,80,
2,6144, Note_on_c, 0,40.0,76,
2,6144, Note_off_c, 0,76.0,0,
2,6144, Note_off_c, 0,40.0,0,
2,6144, Note_on_c, 0,69.0,75,
2,6144, Note_on_c, 0,84.0,83,
2,6400, Note_off_c, 0,64.0,0,
2,6400, Note_on_c, 0,31.0,83,
2,6400, Note_off_c, 0,37.0,0,
2,6400, Note_on_c, 0,66.0,76,
2,6400, Note_off_c, 0,50.0,0,
2,6400, Note_on_c, 0,62.0,76,
2,6400, Note_on_c, 0,43.0,72,
2,6400, Note_on_c, 0,38.0,72,
2,6528, Note_off_c, 0,47.0,0,
2,6528, Note_off_c, 0,32.0,0,
2,6528, Note_off_c, 0,83.0,0,
2,6528, Note_on_c, 0,76.0,75,
2,6528, Note_on_c, 0,64.0,75,
2,6528, Note_on_c, 0,79.0,74,
2,6528, Note_off_c, 0,35.0,0,
2,6528, Note_off_c, 0,84.0,0,
2,6656, Note_on_c, 0,40.0,72,
2,6656, Note_off_c, 0,66.0,0,
2,6656, Note_on_c, 0,35.0,72,
2,6656, Note_on_c, 0,83.0,71,
2,6656, Note_on_c, 0,59.0,66,
2,6656, Note_off_c, 0,43.0,0,
2,6656, Note_on_c, 0,75.0,73,
2,6656, Note_off_c, 0,68.0,0,
2,6912, Note_on_c, 0,60.0,76,
2,6912, Note_off_c, 0,60.0,0,
2,6912, Note_on_c, 0,81.0,85,
2,6912, Note_on_c, 0,63.0,90,
2,6912, Note_off_c, 0,63.0,0,
2,6912, Note_off_c, 0,71.0,0,
2,6912, Note_on_c, 0,60.0,86,
2,6912, Note_on_c, 0,66.0,85,
2,7040, Note_off_c, 0,80.0,0,
2,7040, Note_off_c, 0,46.0,0,
2,7040, Note_on_c, 0,37.0,81,
2,7040, Note_on_c, 0,32.0,78,
2,7040, Note_off_c, 0,78.0,0,
2,7040, Note_on_c, 0,50.0,80,
2,7040, Note_on_c, 0,70.0,81,
2,7040, Note_on_c, 0,44.0,80,
2,7168, Note_on_c, 0,82.0,79,
2,7168, Note_on_c, 0,41.0,78,
2,7168, Note_off_c, 0,31.0,0,
2,7168, Note_on_c, 0,43.0,78,
2,7168, Note_on_c, 0,61.0,77,
2,7168, Note_on_c, 0,31.0,76,
2,7168, Note_off_c, 0,54.0,0,
2,8192, Note_off_c, 0,75.0,0,
2,8192, Note_off_c, 0,83.0,0,
2,8192, Note_on_c, 0,78.0,76,
2,8192, Note_on_c, 0,80.0,75,
2,8192, Note_off_c, 0,74.0,0,
2,8192, Note_on_c, 0,67.0,76,
2,8192, Note_on_c, 0,49.0,78,
2,8448, Note_on_c, 0,57.0,81,
2,8448, Note_off_c, 0,50.0,0,
2,8448, Note_off_c, 0,81.0,0,
2,8448, Note_off_c, 0,41.0,0,
2,8448, Note_off_c, 0,57.0,0,
2,8448, Note_on_c, 0,83.0,82,
2,8448, Note_on_c, 0,46.0,80,
2,8448, Note_off_c, 0,48.0,0,
2,8704, Note_off_c, 0,52.0,0,
2,8704, Note_off_c, 0,45.0,0,
2,8704, Note_off_c, 0,38.0,0,
2,8704, Note_off_c, 0,69.0,0,
2,8704, Note_off_c, 0,46.0,0,
2,8704, Note_off_c, 0,44.0,0,
2,8704, Note_off_c, 0,80.0,0,
2,8704, Note_on_c, 0,74.0,71,
2,8896, Note_off_c, 0,33.0,0,
2,8896, Note_on_c, 0,84.0,74,
2,8896, Note_on_c, 0,81.0,85,
2,8896, Note_on_c, 0,41.0,83,
2,8896, Note_on_c, 0,54.0,72,
2,8896, Note_off_c, 0,43.0,0,
2,8896, Note_off_c, 0,41.0,0,
2,8896, Note_off_c, 0,83.0,0,
2,8960, Note_on_c, 0,72.0,72,
2,8960, Note_on_c, 0,48.0,77,
2,8960, Note_off_c, 0,84.0,0,
2,8960, Note_off_c, 0,39.0,0,
2,8960, Note_off_c, 0,35.0,0,
2,8960, Note_on_c, 0,44.0,76,
2,8960, Note_off_c, 0,67.0,0,
2,8960, Note_off_c, 0,58.0,0,
2,9152, Note_off_c, 0,31.0,0,
2,9152, Note_off_c, 0,44.0,0,
2,9152, Note_on_c, 0,44.0,67,
2,9152, Note_on_c, 0,33.0,67,
2,9152, Note_on_c, 0,67.0,69,
2,9152, Note_on_c, 0,52.0,71,
2,9152, Note_off_c, 0,79.0,0,
2,9152, Note_off_c, 0,74.0,0,
2,9216, Note_off_c, 0,78.0,0,
2,9216, Note_off_c, 0,81.0,0,
2,9216, Note_off_c, 0,36.0,0,
2,9216, Note_on_c, 0,55.0,75,
2,9216, Note_off_c, 0,60.0,0,
2,9216, Note_off_c, 0,48.0,0,
2,9216, Note_off_c, 0,86.0,0,
2,9216, Note_off_c, 0,32.0,0,
2,9728, Note_on_c, 0,47.0,78,
2,9728, Note_on_c, 0,32.0,76,
2,9728, Note_on_c, 0,79.0,75,
2,9728, Note_off_c, 0,37.0,0,
2,9728, Note_off_c, 0,49.0,0,
2,9728, Note_on_c, 0,49.0,83,
2,9728, Note_on_c, 0,69.0,85,
2,9728, Note_off_c, 0,72.0,0,
2,10112, Note_on_c, 0,74.0,75,
2,10112, Note_on_c, 0,38.0,72,
2,10112, Note_off_c, 0,79.0,0,
2,10112, Note_off_c, 0,69.0,0,
2,10112, Note_off_c, 0,76.0,0,
2,10112, Note_on_c, 0,76.0,73,
2,10112, Note_off_c, 0,51.0,0,
2,10112, Note_on_c, 0,79.0,74,
2,10240, Note_on_c, 0,86.0,77,
2,10240, Note_off_c, 0,55.0,0,
2,10240, Note_on_c, 0,63.0,78,
2,10240, Note_on_c, 0,80.0,76,
2,10240, Note_off_c, 0,38.0,0,
2,10240, Note_on_c, 0,60.0,75,
2,10240, Note_off_c, 0,62.0,0,
2,10240, Note_on_c, 0,31.0,75,
2,10432, Note_on_c, 0,62.0,76,
2,10432, Note_on_c, 0,50.0,76,
2,10432, Note_on_c, 0,48.0,76,
2,10432, Note_off_c, 0,74.0,0,
2,10432, Note_off_c, 0,31.0,0,
2,10432, Note_on_c, 0,36.0,75,
2,10432, Note_on_c, 0,31.0,74,
2,10432, Note_on_c, 0,43.0,74,
2,10496, Note_off_c, 0,66.0,0,
2,10496, Note_off_c, 0,50.0,0,
2,10496, Note_on_c, 0,39.0,76,
2,10496, Note_off_c, 0,61.0,0,
2,10496, Note_off_c, 0,76.0,0,
2,10496, Note_on_c, 0,38.0,78,
2,10496, Note_off_c, 0,38.0,0,
2,10496, Note_on_c, 0,38.0,79,
2,10688, Note_off_c, 0,63.0,0,
2,10688, Note_off_c, 0,33.0,0,
2,10688, Note_off_c, 0,59.0,0,
2,10688, Note_on_c, 0,35.0,77,
2,10688, Note_on_c, 0,81.0,74,
2,10688, Note_on_c, 0,33.0,75,
2,10688, Note_on_c, 0,57.0,77,
2,10688, Note_on_c, 0,74.0,79,
2,10752, Note_on_c, 0,69.0,80,
2,10752, Note_on_c, 0,51.0,78,
2,10752, Note_off_c, 0,35.0,0,
2,10752, Note_on_c, 0,46.0,76,
2,10752, Note_off_c, 0,38.0,0,
2,10752, Note_off_c, 0,31.0,0,
2,10752, Note_on_c, 0,38.0,74,
2,10752, Note_off_c, 0,40.0,0,
2,10944, Note_on_c, 0,76.0,71,
2,10944, Note_on_c, 0,72.0,72,
2,10944, Note_off_c, 0,46.0,0,
2,10944, Note_on_c, 0,41.0,74,
2,10944, Note_off_c, 0,32.0,0,
2,10944, Note_on_c, 0,59.0,75,
2,10944, Note_off_c, 0,64.0,0,
2,10944, Note_off_c, 0,33.0,0,
2,11008, Note_off_c, 0,79.0,0,
2,11008, Note_off_c, 0,36.0,0,
2,11008, Note_off_c, 0,39.0,0,
2,11008, Note_off_c, 0,48.0,0,
2,11008, Note_off_c, 0,65.0,0,
2,11008, Note_off_c, 0,49.0,0,
2,11008, Note_off_c, 0,60.0,0,
2,11008, Note_on_c, 0,33.0,84,
2,11136, Note_off_c, 0,47.0,0,
2,11136, Note_on_c, 0,83.0,82,
2,11136, Note_off_c, 0,33.0,0,
2,11136, Note_off_c, 0,72.0,0,
2,11136, Note_off_c, 0,86.0,0,
2,11136, Note_on_c, 0,47.0,75,
2,11136, Note_on_c, 0,35.0,76,
2,11136, Note_off_c, 0,52.0,0,
2,11264, Note_on_c, 0,55.0,81,
2,11264, Note_on_c, 0,37.0,83,
2,11264, Note_on_c, 0,68.0,89,
2,11264, Note_off_c, 0,69.0,0,
2,11264, Note_on_c, 0,39.0,89,
2,11264, Note_off_c, 0,81.0,0,
2,11264, Note_on_c, 0,48.0,85,
2,11264, Note_off_c, 0,54.0,0,
2,11776, Note_off_c, 0,67.0,0,
2,11776, Note_off_c, 0,37.0,0,
2,11776, Note_on_c, 0,40.0,83,
2,11776, Note_on_c, 0,69.0,79,
2,11776, Note_off_c, 0,44.0,0,
2,11776, Note_on_c, 0,78.0,77,
2,11776, Note_on_c, 0,60.0,78,
2,11776, Note_on_c, 0,71.0,79,
2,12288, Note_off_c, 0,43.0,0,
2,12288, Note_on_c, 0,77.0,76,
2,12288, Note_off_c, 0,60.0,0,
2,12288, Note_on_c, 0,56.0,73,
2,12288, Note_on_c, 0,61.0,74,
2,12288, Note_off_c, 0,62.0,0,
2,12288, Note_on_c, 0,63.0,76,
2,12288, Note_on_c, 0,44.0,77,
2,12480, Note_off_c, 0,83.0,0,
2,12480, Note_off_c, 0,69.0,0,
2,12480, Note_on_c, 0,81.0,78,
2,12480, Note_off_c, 0,44.0,0,
2,12480, Note_off_c, 0,77.0,0,
2,12480, Note_off_c, 0,63.0,0,
2,12480, Note_off_c, 0,48.0,0,
2,12480, Note_on_c, 0,69.0,78,
2,12544, Note_on_c, 0,46.0,77,
2,12544, Note_off_c, 0,81.0,0,
2,12544, Note_off_c, 0,56.0,0,
2,12544, Note_on_c, 0,79.0,74,
2,12544, Note_off_c, 0,80.0,0,
2,12544, Note_off_c, 0,41.0,0,
2,12544, Note_off_c, 0,42.0,0,
2,12544, Note_on_c, 0,33.0,72,
2,12736, Note_on_c, 0,72.0,77,
2,12736, Note_off_c, 0,55.0,0,
2,12736, Note_on_c, 0,44.0,82,
2,12736, Note_on_c, 0,31.0,77,
2,12736, Note_off_c, 0,79.0,0,
2,12736, Note_on_c, 0,81.0,71,
2,12736, Note_off_c, 0,72.0,0,
2,12736, Note_on_c, 0,60.0,70,
2,12800, Note_on_c, 0,62.0,71,
2,12800, Note_on_c, 0,45.0,71,
2,12800, Note_on_c, 0,37.0,72,
2,12800, Note_on_c, 0,41.0,75,
2,12800, Note_on_c, 0,64.0,80,
2,12800, Note_on_c, 0,49.0,80,
2,12800, Note_off_c, 0,37.0,0,
2,12800, Note_on_c, 0,43.0,81,
2,12992, Note_off_c, 0,33.0,0,
2,12992, Note_off_c, 0,39.0,0,
2,12992, Note_off_c, 0,62.0,0,
2,12992, Note_on_c, 0,79.0,80,
2,12992, Note_on_c, 0,86.0,73,
2,12992, Note_off_c, 0,70.0,0,
2,12992, Note_on_c, 0,72.0,73,
2,12992, Note_on_c, 0,50.0,81,
2,13056, Note_on_c, 0,75.0,81,
2,13056, Note_off_c, 0,51.0,0,
2,13056, Note_off_c, 0,79.0,0,
2,13056, Note_off_c, 0,40.0,0,
2,13056, Note_on_c, 0,70.0,74,
2,13056, Note_off_c, 0,43.0,0,
2,13056, Note_on_c, 0,39.0,74,
2,13056, Note_off_c, 0,81.0,0,
2,13248, Note_off_c, 0,75.0,0,
2,13248, Note_on_c, 0,53.0,77,
2,13248, Note_on_c, 0,36.0,77,
2,13248, Note_on_c, 0,83.0,70,
2,13248, Note_off_c, 0,49.0,0,
2,13248, Note_off_c, 0,41.0,0,
2,13248, Note_on_c, 0,40.0,69,
2,13248, Note_on_c, 0,84.0,70,
2,13312, Note_off_c, 0,36.0,0,
2,13312, Note_off_c, 0,68.0,0,
2,13312, Note_on_c, 0,41.0,71,
2,13312, Note_on_c, 0,80.0,72,
2,13312, Note_on_c, 0,56.0,75,
2,13312, Note_on_c, 0,81.0,79,
2,13312, Note_off_c, 0,45.0,0,
2,13312, Note_off_c, 0,78.0,0,
2,13824, Note_on_c, 0,51.0,82,
2,13824, Note_on_c, 0,48.0,76,
2,13824, Note_off_c, 0,39.0,0,
2,13824, Note_off_c, 0,51.0,0,
2,13824, Note_on_c, 0,33.0,72,
2,13824, Note_off_c, 0,71.0,0,
2,13824, Note_on_c, 0,63.0,77,
2,13824, Note_off_c, 0,57.0,0,
2,14080, Note_off_c, 0,84.0,0,
2,14080, Note_on_c, 0,62.0,79,
2,14080, Note_off_c, 0,62.0,0,
2,14080, Note_off_c, 0,74.0,0,
2,14080, Note_off_c, 0,82.0,0,
2,14080, Note_on_c, 0,84.0,74,
2,14080, Note_off_c, 0,63.0,0,
2,14080, Note_off_c, 0,80.0,0,
2,14336, Note_on_c, 0,80.0,73,
2,14336, Note_on_c, 0,52.0,76,
2,14336, Note_on_c, 0,45.0,78,
2,14336, Note_on_c, 0,37.0,79,
2,14336, Note_off_c, 0,61.0,0,
2,14336, Note_off_c, 0,45.0,0,
2,14336, Note_off_c, 0,31.0,0,
2,14336, Note_off_c, 0,52.0,0,
2,14592, Note_off_c, 0,35.0,0,
2,14592, Note_on_c, 0,43.0,81,
2,14592, Note_on_c, 0,55.0,77,
2,14592, Note_off_c, 0,64.0,0,
2,14592, Note_off_c, 0,60.0,0,
2,14592, Note_off_c, 0,69.0,0,
2,14592, Note_off_c, 0,46.0,0,
2,14592, Note_off_c, 0,84.0,0,
2,14784, Note_off_c, 0,40.0,0,
2,14784, Note_off_c, 0,80.0,0,
2,14784, Note_off_c, 0,53.0,0,
2,14784, Note_off_c, 0,70.0,0,
2,14784, Note_on_c, 0,46.0,72,
2,14784, Note_off_c, 0,46.0,0,
2,14784, Note_on_c, 0,80.0,76,
2,14784, Note_off_c, 0,80.0,0,
2,14848, Note_on_c, 0,57.0,79,
2,14848, Note_off_c, 0,43.0,0,
2,14848, Note_off_c, 0,81.0,0,
2,14848, Note_off_c, 0,50.0,0,
2,14848, Note_on_c, 0,31.0,77,
2,14848, Note_on_c, 0,69.0,75,
2,14848, Note_off_c, 0,47.0,0,
2,14848, Note_off_c, 0,55.0,0,
2,15104, Note_on_c, 0,45.0,73,
2,15104, Note_off_c, 0,86.0,0,
2,15104, Note_off_c, 0,83.0,0,
2,15104, Note_on_c, 0,70.0,73,
2,15104, Note_on_c, 0,35.0,76,
2,15104, Note_off_c, 0,56.0,0,
2,15104, Note_off_c, 0,44.0,0,
2,15104, Note_on_c, 0,54.0,79,
2,15232, Note_on_c, 0,71.0,76,
2,15232, Note_on_c, 0,86.0,71,
2,15232, Note_off_c, 0,33.0,0,
2,15232, Note_on_c, 0,43.0,72,
2,15232, Note_off_c, 0,73.0,0,
2,15232, Note_on_c, 0,50.0,74,
2,15232, Note_on_c, 0,77.0,75,
2,15232, Note_on_c, 0,40.0,73,
2,15360, Note_on_c, 0,51.0,72,
2,15360, Note_on_c, 0,47.0,73,
2,15360, Note_off_c, 0,41.0,0,
2,15360, Note_off_c, 0,86.0,0,
2,15360, Note_on_c, 0,74.0,79,
2,15360, Note_off_c, 0,40.0,0,
2,15360, Note_off_c, 0,31.0,0,
2,16384, Note_off_c, 0,54.0,0,
2,16384, Note_on_c, 0,64.0,82,
2,16384, Note_on_c, 0,31.0,82,
2,16384, Note_on_c, 0,80.0,80,
2,16384, Note_off_c, 0,48.0,0,
2,16384, Note_on_c, 0,75.0,79,
2,16384, Note_on_c, 0,61.0,78,
2,16640, Note_off_c, 0,57.0,0,
2,16640, Note_on_c, 0,41.0,76,
2,16640, Note_on_c, 0,36.0,75,
2,16640, Note_off_c, 0,76.0,0,
2,16640, Note_on_c, 0,62.0,79,
2,16640, Note_on_c, 0,84.0,81,
2,16640, Note_off_c, 0,74.0,0,
2,16640, Note_on_c, 0,67.0,76,
2,16896, Note_off_c, 0,80.0,0,
2,16896, Note_off_c, 0,36.0,0,
2,16896, Note_off_c, 0,31.0,0,
2,16896, Note_off_c, 0,70.0,0,
2,16896, Note_on_c, 0,73.0,74,
2,16896, Note_off_c, 0,77.0,0,
2,16896, Note_on_c, 0,48.0,70,
2,16896, Note_on_c, 0,80.0,69,
2,17088, Note_on_c, 0,78.0,71,
2,17088, Note_off_c, 0,38.0,0,
2,17088, Note_off_c, 0,37.0,0,
2,17088, Note_off_c, 0,35.0,0,
2,17088, Note_on_c, 0,76.0,71,
2,17088, Note_off_c, 0,48.0,0,
2,17088, Note_on_c, 0,35.0,79,
2,17088, Note_off_c, 0,50.0,0,
2,17152, Note_off_c, 0,80.0,0,
2,17152, Note_on_c, 0,80.0,83,
2,17152, Note_on_c, 0,32.0,77,
2,17152, Note_on_c, 0,33.0,74,
2,17152, Note_off_c, 0,45.0,0,
2,17152, Note_off_c, 0,43.0,0,
2,17152, Note_on_c, 0,66.0,78,
2,17152, Note_off_c, 0,41.0,0,
2,17344, Note_off_c, 0,75.0,0,
2,17344, Note_off_c, 0,66.0,0,
2,17344, Note_on_c, 0,42.0,81,
2,17344, Note_on_c, 0,39.0,79,
2,17344, Note_on_c, 0,83.0,75,
2,17344, Note_on_c, 0,55.0,78,
2,17344, Note_on_c, 0,36.0,81,
2,17344, Note_on_c, 0,70.0,84,
2,17408, Note_on_c, 0,41.0,91,
2,17408, Note_off_c, 0,33.0,0,
2,17408, Note_on_c, 0,65.0,82,
2,17408, Note_off_c, 0,32.0,0,
2,17408, Note_off_c, 0,35.0,0,
2,17408, Note_on_c, 0,50.0,64,
2,17408, Note_off_c, 0,55.0,0,
2,17408, Note_on_c, 0,38.0,69,
2,17920, Note_on_c, 0,46.0,80,
2,17920, Note_on_c, 0,43.0,80,
2,17920, Note_on_c, 0,82.0,82,
2,17920, Note_on_c, 0,86.0,81,
2,17920, Note_off_c, 0,82.0,0,
2,17920, Note_on_c, 0,56.0,77,
2,17920, Note_on_c, 0,66.0,78,
2,17920, Note_off_c, 0,42.0,0,
2,18432, Note_off_c, 0,41.0,0,
2,18432, Note_off_c, 0,76.0,0,
2,18432, Note_off_c, 0,83.0,0,
2,18432, Note_on_c, 0,53.0,78,
2,18432, Note_on_c, 0,35.0,77,
2,18432, Note_on_c, 0,49.0,76,
2,18432, Note_on_c, 0,77.0,76,
2,18432, Note_on_c, 0,41.0,76,
2,18688, Note_off_c, 0,39.0,0,
2,18688, Note_off_c, 0,38.0,0,
2,18688, Note_off_c, 0,61.0,0,
2,18688, Note_on_c, 0,76.0,75,
2,18688, Note_on_c, 0,42.0,73,
2,18688, Note_off_c, 0,50.0,0,
2,18688, Note_off_c, 0,67.0,0,
2,18688, Note_off_c, 0,62.0,0,
2,18944, Note_off_c, 0,43.0,0,
2,18944, Note_on_c, 0,33.0,72,
2,18944, Note_on_c, 0,43.0,79,
2,18944, Note_on_c, 0,75.0,81,
2,18944, Note_on_c, 0,61.0,77,
2,18944, Note_on_c, 0,39.0,77,
2,18944, Note_off_c, 0,36.0,0,
2,18944, Note_on_c, 0,79.0,74,
2,19136, Note_on_c, 0,82.0,72,
2,19136, Note_off_c, 0,80.0,0,
2,19136, Note_on_c, 0,83.0,78,
2,19136, Note_on_c, 0,81.0,80,
2,19136, Note_off_c, 0,76.0,0,
2,19136, Note_off_c, 0,39.0,0,
2,19136, Note_on_c, 0,74.0,70,
2,19136, Note_off_c, 0,33.0,0,
2,19200, Note_off_c, 0,83.0,0,
2,19200, Note_on_c, 0,63.0,67,
2,19200, Note_on_c, 0,40.0,70,
2,19200, Note_on_c, 0,38.0,71,
2,19200, Note_on_c, 0,80.0,71,
2,19200, Note_off_c, 0,82.0,0,
2,19200, Note_off_c, 0,41.0,0,
2,19200, Note_on_c, 0,76.0,72,
2,19392, Note_off_c, 0,43.0,0,
2,19392, Note_on_c, 0,32.0,73,
2,19392, Note_on_c, 0,36.0,74,
2,19392, Note_on_c, 0,60.0,80,
2,19392, Note_off_c, 0,69.0,0,
2,19392, Note_on_c, 0,55.0,85,
2,19392, Note_off_c, 0,46.0,0,
2,19392, Note_off_c, 0,55.0,0,
2,19456, Note_off_c, 0,86.0,0,
2,19456, Note_off_c, 0,61.0,0,
2,19456, Note_on_c, 0,45.0,81,
2,19456, Note_off_c, 0,40.0,0,
2,19456, Note_off_c, 0,63.0,0,
2,19456, Note_off_c, 0,80.0,0,
2,19456, Note_on_c, 0,52.0,77,
2,19456, Note_off_c, 0,64.0,0,
2,19968, Note_off_c, 0,56.0,0,
2,19968, Note_on_c, 0,31.0,76,
2,19968, Note_on_c, 0,61.0,75,
2,19968, Note_off_c, 0,61.0,0,
2,19968, Note_off_c, 0,42.0,0,
2,19968, Note_off_c, 0,53.0,0,
2,19968, Note_on_c, 0,33.0,77,
2,19968, Note_off_c, 0,73.0,0,
2,20480, Note_on_c, 0,39.0,83,
2,20480, Note_on_c, 0,83.0,80,
2,20480, Note_on_c, 0,86.0,75,
2,20480, Note_off_c, 0,74.0,0,
2,20480, Note_on_c, 0,67.0,74,
2,20480, Note_off_c, 0,59.0,0,
2,20480, Note_off_c, 0,51.0,0,
2,20480, Note_on_c, 0,69.0,75,
2,20736, Note_off_c, 0,84.0,0,
2,20736, Note_on_c, 0,80.0,75,
2,20736, Note_off_c, 0,75.0,0,
2,20736, Note_on_c, 0,50.0,74,
2,20736, Note_off_c, 0,50.0,0,
2,20736, Note_on_c, 0,55.0,75,
2,20736, Note_off_c, 0,81.0,0,
2,20736, Note_on_c, 0,57.0,77,
2,20992, Note_on_c, 0,48.0,79,
2,20992, Note_on_c, 0,59.0,78,
2,20992, Note_off_c, 0,71.0,0,
2,20992, Note_on_c, 0,82.0,76,
2,20992, Note_off_c, 0,31.0,0,
2,20992, Note_off_c, 0,36.0,0,
2,20992, Note_off_c, 0,72.0,0,
2,20992, Note_on_c, 0,53.0,75,
2,21184, Note_off_c, 0,52.0,0,
2,21184, Note_off_c, 0,69.0,0,
2,21184, Note_off_c, 0,86.0,0,
2,21184, Note_off_c, 0,38.0,0,
2,21184, Note_on_c, 0,86.0,76,
2,21184, Note_on_c, 0,62.0,79,
2,21184, Note_off_c, 0,49.0,0,
2,21184, Note_off_c, 0,60.0,0,
2,21248, Note_off_c, 0,33.0,0,
2,21248, Note_on_c, 0,36.0,81,
2,21248, Note_on_c, 0,69.0,77,
2,21248, Note_on_c, 0,84.0,78,
2,21248, Note_on_c, 0,61.0,81,
2,21248, Note_off_c, 0,45.0,0,
2,21248, Note_off_c, 0,39.0,0,
2,21248, Note_on_c, 0,33.0,80,
2,21440, Note_on_c, 0,74.0,77,
2,21440, Note_on_c, 0,45.0,77,
2,21440, Note_on_c, 0,60.0,80,
2,21440, Note_on_c, 0,31.0,82,
2,21440, Note_off_c, 0,77.0,0,
2,21440, Note_off_c, 0,60.0,0,
2,21440, Note_on_c, 0,41.0,85,
2,21440, Note_on_c, 0,50.0,87,
2,21504, Note_off_c, 0,50.0,0,
2,21504, Note_off_c, 0,55.0,0,
2,21504, Note_off_c, 0,86.0,0,
2,21504, Note_on_c, 0,40.0,75,
2,21504, Note_off_c, 0,61.0,0,
2,21504, Note_on_c, 0,86.0,70,
2,21504, Note_off_c, 0,48.0,0,
2,21504, Note_on_c, 0,56.0,75,
2,22016, Note_off_c, 0,69.0,0,
2,22016, Note_on_c, 0,71.0,77,
2,22016, Note_on_c, 0,43.0,76,
2,22016, Note_on_c, 0,69.0,73,
2,22016, Note_off_c, 0,83.0,0,
2,22016, Note_off_c, 0,56.0,0,
2,22016, Note_on_c, 0,81.0,75,
2,22016, Note_off_c, 0,74.0,0,
2,22272, Note_on_c, 0,39.0,76,
2,22272, Note_off_c, 0,40.0,0,
2,22272, Note_on_c, 0,37.0,80,
2,22272, Note_off_c, 0,32.0,0,
2,22272, Note_off_c, 0,80.0,0,
2,22272, Note_on_c, 0,42.0,86,
2,22272, Note_on_c, 0,51.0,83,
2,22272, Note_off_c, 0,45.0,0,
2,22400, Note_off_c, 0,67.0,0,
2,22400, Note_off_c, 0,47.0,0,
2,22400, Note_on_c, 0,52.0,82,
2,22400, Note_off_c, 0,66.0,0,
2,22400, Note_on_c, 0,48.0,77,
2,22400, Note_off_c, 0,37.0,0,
2,22400, Note_on_c, 0,50.0,70,
2,22400, Note_on_c, 0,80.0,72,
2,22528, Note_off_c, 0,62.0,0,
2,22528, Note_on_c, 0,83.0,74,
2,22528, Note_off_c, 0,41.0,0,
2,22528, Note_on_c, 0,54.0,74,
2,22528, Note_off_c, 0,43.0,0,
2,22528, Note_off_c, 0,79.0,0,
2,22528, Note_off_c, 0,48.0,0,
2,22528, Note_off_c, 0,35.0,0,
2,22784, Note_off_c, 0,78.0,0,
2,22784, Note_off_c, 0,69.0,0,
2,22784, Note_off_c, 0,50.0,0,
2,22784, Note_on_c, 0,38.0,75,
2,22784, Note_off_c, 0,51.0,0,
2,22784, Note_off_c, 0,80.0,0,
2,22784, Note_on_c, 0,73.0,76,
2,22784, Note_on_c, 0,80.0,77,
2,22912, Note_off_c, 0,70.0,0,
2,22912, Note_off_c, 0,33.0,0,
2,22912, Note_on_c, 0,33.0,81,
2,22912, Note_on_c, 0,40.0,85,
2,22912, Note_off_c, 0,31.0,0,
2,22912, Note_on_c, 0,77.0,84,
2,22912, Note_on_c, 0,58.0,74,
2,22912, Note_on_c, 0,63.0,73,
2,23040, Note_off_c, 0,76.0,0,
2,23040, Note_on_c, 0,32.0,77,
2,23040, Note_off_c, 0,77.0,0,
2,23040, Note_off_c, 0,82.0,0,
2,23040, Note_off_c, 0,39.0,0,
2,23040, Note_on_c, 0,82.0,78,
2,23040, Note_on_c, 0,64.0,78,
2,23040, Note_on_c, 0,46.0,79,
2,23296, Note_on_c, 0,69.0,72,
2,23296, Note_on_c, 0,56.0,72,
2,23296, Note_off_c, 0,38.0,0,
2,23296, Note_on_c, 0,72.0,77,
2,23296, Note_on_c, 0,60.0,77,
2,23296, Note_off_c, 0,82.0,0,
2,23296, Note_on_c, 0,76.0,70,
2,23296, Note_on_c, 0,37.0,69,
2,23424, Note_off_c, 0,33.0,0,
2,23424, Note_off_c, 0,52.0,0,
2,23424, Note_on_c, 0,52.0,74,
2,23424, Note_off_c, 0,83.0,0,
2,23424, Note_on_c, 0,62.0,76,
2,23424, Note_on_c, 0,50.0,69,
2,23424, Note_on_c, 0,82.0,72,
2,23424, Note_on_c, 0,35.0,75,
2,23552, Note_off_c, 0,37.0,0,
2,23552, Note_on_c, 0,41.0,83,
2,23552, Note_off_c, 0,54.0,0,
2,23552, Note_off_c, 0,41.0,0,
2,23552, Note_off_c, 0,32.0,0,
2,23552, Note_on_c, 0,39.0,88,
2,23552, Note_on_c, 0,37.0,85,
2,24576, Note_off_c, 0,76.0,0,
2,24576, Note_off_c, 0,72.0,0,
2,24576, Note_off_c, 0,82.0,0,
2,24576, Note_on_c, 0,55.0,83,
2,24576, Note_off_c, 0,37.0,0,
2,24576, Note_on_c, 0,47.0,83,
2,24576, Note_off_c, 0,36.0,0,
2,24832, Note_off_c, 0,62.0,0,
2,24832, Note_off_c, 0,40.0,0,
2,24832, Note_on_c, 0,36.0,80,
2,24832, Note_on_c, 0,77.0,76,
2,24832, Note_on_c, 0,74.0,76,
2,24832, Note_off_c, 0,77.0,0,
2,24832, Note_off_c, 0,71.0,0,
2,24832, Note_off_c, 0,60.0,0,
2,25088, Note_on_c, 0,37.0,80,
2,25088, Note_off_c, 0,46.0,0,
2,25088, Note_on_c, 0,31.0,85,
2,25088, Note_off_c, 0,35.0,0,
2,25088, Note_on_c, 0,61.0,79,
2,25088, Note_off_c, 0,42.0,0,
2,25088, Note_off_c, 0,81.0,0,
2,25088, Note_off_c, 0,31.0,0,
2,25280, Note_off_c, 0,74.0,0,
2,25280, Note_on_c, 0,48.0,71,
2,25280, Note_on_c, 0,67.0,74,
2,25280, Note_off_c, 0,84.0,0,
2,25280, Note_off_c, 0,37.0,0,
2,25280, Note_on_c, 0,31.0,77,
2,25280, Note_on_c, 0,40.0,74,
2,25280, Note_off_c, 0,36.0,0,
2,25344, Note_off_c, 0,31.0,0,
2,25344, Note_off_c, 0,50.0,0,
2,25344, Note_off_c, 0,67.0,0,
2,25344, Note_on_c, 0,74.0,69,
2,25344, Note_on_c, 0,51.0,73,
2,25344, Note_off_c, 0,56.0,0,
2,25344, Note_on_c, 0,60.0,82,
2,25344, Note_on_c, 0,33.0,82,
2,25536, Note_on_c, 0,49.0,85,
2,25536, Note_on_c, 0,38.0,81,
2,25536, Note_on_c, 0,62.0,69,
2,25536, Note_off_c, 0,63.0,0,
2,25536, Note_off_c, 0,33.0,0,
2,25536, Note_off_c, 0,59.0,0,
2,25536, Note_off_c, 0,62.0,0,
2,25536, Note_on_c, 0,66.0,72,
2,25600, Note_off_c, 0,64.0,0,
2,25600, Note_on_c, 0,82.0,85,
2,25600, Note_on_c, 0,77.0,82,
2,25600, Note_off_c, 0,55.0,0,
2,25600, Note_off_c, 0,49.0,0,
2,25600, Note_off_c, 0,74.0,0,
2,25600, Note_off_c, 0,52.0,0,
2,25600, Note_off_c, 0,40.0,0,
2,26112, Note_on_c, 0,45.0,68,
2,26112, Note_off_c, 0,60.0,0,
2,26112, Note_on_c, 0,81.0,71,
2,26112, Note_on_c, 0,79.0,79,
2,26112, Note_on_c, 0,60.0,76,
2,26112, Note_off_c, 0,82.0,0,
2,26112, Note_on_c, 0,64.0,70,
2,26112, Note_on_c, 0,75.0,68,
2,26496, Note_on_c, 0,84.0,69,
2,26496, Note_off_c, 0,69.0,0,
2,26496, Note_on_c, 0,62.0,71,
2,26496, Note_on_c, 0,67.0,73,
2,26496, Note_on_c, 0,37.0,75,
2,26496, Note_on_c, 0,31.0,77,
2,26496, Note_off_c, 0,38.0,0,
2,26496, Note_off_c, 0,80.0,0,
2,26624, Note_off_c, 0,73.0,0,
2,26624, Note_off_c, 0,45.0,0,
2,26624, Note_on_c, 0,78.0,79,
2,26624, Note_off_c, 0,61.0,0,
2,26624, Note_on_c, 0,50.0,80,
2,26624, Note_off_c, 0,64.0,0,
2,26624, Note_on_c, 0,56.0,79,
2,26624, Note_on_c, 0,35.0,78,
2,26816, Note_on_c, 0,76.0,76,
2,26816, Note_on_c, 0,40.0,75,
2,26816, Note_off_c, 0,39.0,0,
2,26816, Note_off_c, 0,35.0,0,
2,26816, Note_off_c, 0,40.0,0,
2,26816, Note_off_c, 0,84.0,0,
2,26816, Note_off_c, 0,67.0,0,
2,26816, Note_off_c, 0,37.0,0,
2,26880, Note_on_c, 0,45.0,74,
2,26880, Note_on_c, 0,70.0,73,
2,26880, Note_off_c, 0,60.0,0,
2,26880, Note_off_c, 0,76.0,0,
2,26880, Note_on_c, 0,40.0,74,
2,26880, Note_on_c, 0,55.0,75,
2,26880, Note_on_c, 0,36.0,77,
2,26880, Note_off_c, 0,36.0,0,
2,27072, Note_off_c, 0,55.0,0,
2,27072, Note_on_c, 0,84.0,76,
2,27072, Note_off_c, 0,75.0,0,
2,27072, Note_on_c, 0,33.0,74,
2,27072, Note_on_c, 0,72.0,74,
2,27072, Note_on_c, 0,74.0,74,
2,27072, Note_on_c, 0,82.0,75,
2,27072, Note_on_c, 0,43.0,76,
2,27136, Note_on_c, 0,44.0,78,
2,27136, Note_off_c, 0,45.0,0,
2,27136, Note_on_c, 0,68.0,80,
2,27136, Note_on_c, 0,80.0,78,
2,27136, Note_on_c, 0,76.0,73,
2,27136, Note_on_c, 0,71.0,75,
2,27136, Note_off_c, 0,86.0,0,
2,27136, Note_off_c, 0,79.0,0,
2,27328, Note_off_c, 0,82.0,0,
2,27328, Note_on_c, 0,86.0,77,
2,27328, Note_off_c, 0,43.0,0,
2,27328, Note_off_c, 0,80.0,0,
2,27328, Note_on_c, 0,39.0,77,
2,27328, Note_on_c, 0,63.0,74,
2,27328, Note_off_c, 0,40.0,0,
2,27328, Note_on_c, 0,42.0,76,
2,27392, Note_on_c, 0,52.0,83,
2,27392, Note_off_c, 0,44.0,0,
2,27392, Note_on_c, 0,67.0,81,
2,27392, Note_on_c, 0,73.0,74,
2,27392, Note_off_c, 0,84.0,0,
2,27392, Note_off_c, 0,51.0,0,
2,27392, Note_off_c, 0,71.0,0,
2,27392, Note_off_c, 0,31.0,0,
2,27520, Note_on_c, 0,44.0,73,
2,27520, Note_on_c, 0,37.0,71,
2,27520, Note_off_c, 0,37.0,0,
2,27520, Note_off_c, 0,70.0,0,
2,27520, Note_on_c, 0,36.0,72,
2,27520, Note_off_c, 0,50.0,0,
2,27520, Note_on_c, 0,37.0,78,
2,27520, Note_on_c, 0,82.0,78,
2,27648, Note_off_c, 0,36.0,0,
2,27648, Note_on_c, 0,46.0,80,
2,27648, Note_off_c, 0,57.0,0,
2,27648, Note_off_c, 0,67.0,0,
2,27648, Note_on_c, 0,31.0,80,
2,27648, Note_on_c, 0,59.0,79,
2,27648, Note_on_c, 0,71.0,79,
2,27648, Note_off_c, 0,31.0,0,
2,28160, Note_off_c, 0,39.0,0,
2,28160, Note_on_c, 0,64.0,85,
2,28160, Note_on_c, 0,51.0,87,
2,28160, Note_on_c, 0,41.0,86,
2,28160, Note_off_c, 0,33.0,0,
2,28160, Note_off_c, 0,81.0,0,
2,28160, Note_on_c, 0,81.0,85,
2,28160, Note_off_c, 0,82.0,0,
2,28672, Note_off_c, 0,41.0,0,
2,28672, Note_on_c, 0,82.0,83,
2,28672, Note_on_c, 0,61.0,81,
2,28672, Note_on_c, 0,57.0,79,
2,28672, Note_on_c, 0,36.0,77,
2,28672, Note_on_c, 0,35.0,74,
2,28672, Note_on_c, 0,79.0,73,
2,28672, Note_off_c, 0,63.0,0,
2,28864, Note_off_c, 0,44.0,0,
2,28864, Note_off_c, 0,78.0,0,
2,28864, Note_on_c, 0,80.0,75,
2,28864, Note_on_c, 0,60.0,77,
2,28864, Note_off_c, 0,47.0,0,
2,28864, Note_on_c, 0,55.0,79,
2,28864, Note_off_c, 0,73.0,0,
2,28864, Note_off_c, 0,81.0,0,
2,28928, Note_on_c, 0,81.0,78,
2,28928, Note_off_c, 0,86.0,0,
2,28928, Note_on_c, 0,45.0,76,
2,28928, Note_off_c, 0,81.0,0,
2,28928, Note_on_c, 0,86.0,76,
2,28928, Note_on_c, 0,50.0,77,
2,28928, Note_off_c, 0,56.0,0,
2,28928, Note_off_c, 0,62.0,0,
2,29120, Note_on_c, 0,75.0,79,
2,29120, Note_off_c, 0,75.0,0,
2,29120, Note_off_c, 0,74.0,0,
2,29120, Note_off_c, 0,79.0,0,
2,29120, Note_on_c, 0,78.0,77,
2,29120, Note_on_c, 0,81.0,73,
2,29120, Note_on_c, 0,39.0,75,
2,29120, Note_on_c, 0,41.0,82,
2,29184, Note_on_c, 0,84.0,79,
2,29184, Note_on_c, 0,74.0,72,
2,29184, Note_off_c, 0,80.0,0,
2,29184, Note_off_c, 0,53.0,0,
2,29184, Note_on_c, 0,69.0,73,
2,29184, Note_on_c, 0,38.0,72,
2,29184, Note_off_c, 0,82.0,0,
2,29184, Note_off_c, 0,52.0,0,
2,29376, Note_on_c, 0,49.0,74,
2,29376, Note_off_c, 0,58.0,0,
2,29376, Note_off_c, 0,38.0,0,
2,29376, Note_off_c, 0,71.0,0,
2,29376, Note_on_c, 0,82.0,79,
2,29376, Note_off_c, 0,68.0,0,
2,29376, Note_off_c, 0,69.0,0,
2,29376, Note_on_c, 0,44.0,81,
2,29440, Note_on_c, 0,56.0,81,
2,29440, Note_off_c, 0,56.0,0,
2,29440, Note_on_c, 0,70.0,80,
2,29440, Note_off_c, 0,82.0,0,
2,29440, Note_off_c, 0,57.0,0,
2,29440, Note_on_c, 0,80.0,80,
2,29440, Note_on_c, 0,62.0,78,
2,29440, Note_off_c, 0,49.0,0,
2,29632, Note_off_c, 0,81.0,0,
2,29632, Note_off_c, 0,42.0,0,
2,29632, Note_off_c, 0,41.0,0,
2,29632, Note_off_c, 0,64.0,0,
2,29632, Note_off_c, 0,39.0,0,
2,29632, Note_off_c, 0,50.0,0,
2,29632, Note_off_c, 0,77.0,0,
2,29632, Note_on_c, 0,63.0,70,
2,29696, Note_on_c, 0,31.0,71,
2,29696, Note_on_c, 0,43.0,84,
2,29696, Note_off_c, 0,70.0,0,
2,29696, Note_on_c, 0,83.0,84,
2,29696, Note_on_c, 0,33.0,71,
2,29696, Note_off_c, 0,86.0,0,
2,29696, Note_off_c, 0,55.0,0,
2,29696, Note_off_c, 0,45.0,0,
2,30208, Note_off_c, 0,62.0,0,
2,30208, Note_on_c, 0,45.0,71,
2,30208, Note_off_c, 0,51.0,0,
2,30208, Note_on_c, 0,81.0,78,
2,30208, Note_on_c, 0,49.0,78,
2,30208, Note_off_c, 0,60.0,0,
2,30208, Note_off_c, 0,46.0,0,
2,30208, Note_off_c, 0,44.0,0,
2,30464, Note_off_c, 0,80.0,0,
2,30464, Note_on_c, 0,51.0,64,
2,30464, Note_on_c, 0,79.0,63,
2,30464, Note_on_c, 0,56.0,70,
2,30464, Note_on_c, 0,42.0,73,
2,30464, Note_off_c, 0,36.0,0,
2,30464, Note_off_c, 0,48.0,0,
2,30464, Note_off_c, 0,35.0,0,
2,30720, Note_on_c, 0,50.0,77,
2,30720, Note_on_c, 0,82.0,80,
2,30720, Note_on_c, 0,35.0,73,
2,30720, Note_off_c, 0,78.0,0,
2,30720, Note_off_c, 0,66.0,0,
2,30720, Note_on_c, 0,77.0,70,
2,30720, Note_off_c, 0,84.0,0,
2,30720, Note_on_c, 0,36.0,71,
2,30976, Note_off_c, 0,81.0,0,
2,30976, Note_off_c, 0,77.0,0,
2,30976, Note_off_c, 0,76.0,0,
2,30976, Note_on_c, 0,57.0,71,
2,30976, Note_off_c, 0,33.0,0,
2,30976, Note_on_c, 0,44.0,74,
2,30976, Note_on_c, 0,80.0,77,
2,30976, Note_on_c, 0,55.0,76,
2,31168, Note_on_c, 0,53.0,72,
2,31168, Note_on_c, 0,81.0,75,
2,31168, Note_on_c, 0,69.0,77,
2,31168, Note_off_c, 0,74.0,0,
2,31168, Note_on_c, 0,73.0,79,
2,31168, Note_on_c, 0,60.0,82,
2,31168, Note_off_c, 0,83.0,0,
2,31168, Note_off_c, 0,44.0,0,
2,31232, Note_on_c, 0,38.0,79,
2,31232, Note_on_c, 0,39.0,74,
2,31232, Note_on_c, 0,78.0,77,
2,31232, Note_on_c, 0,77.0,80,
2,31232, Note_on_c, 0,67.0,77,
2,31232, Note_on_c, 0,33.0,72,
2,31232, Note_on_c, 0,44.0,71,
2,31232, Note_on_c, 0,86.0,72,
2,31488, Note_on_c, 0,83.0,75,
2,31488, Note_on_c, 0,74.0,76,
2,31488, Note_off_c, 0,67.0,0,
2,31488, Note_off_c, 0,51.0,0,
2,31488, Note_off_c, 0,78.0,0,
2,31488, Note_off_c, 0,35.0,0,
2,31488, Note_off_c, 0,83.0,0,
2,31488, Note_off_c, 0,56.0,0,
2,31616, Note_on_c, 0,52.0,74,
2,31616, Note_off_c, 0,74.0,0,
2,31616, Note_off_c, 0,69.0,0,
2,31616, Note_off_c, 0,80.0,0,
2,31616, Note_on_c, 0,41.0,71,
2,31616, Note_off_c, 0,81.0,0,
2,31616, Note_off_c, 0,39.0,0,
2,31616, Note_on_c, 0,80.0,69,
2,31744, Note_off_c, 0,41.0,0,
2,31744, Note_off_c, 0,77.0,0,
2,31744, Note_on_c, 0,77.0,69,
2,31744, Note_on_c, 0,75.0,68,
2,31744, Note_on_c, 0,71.0,65,
2,31744, Note_on_c, 0,40.0,75,
2,31744, Note_off_c, 0,80.0,0,
2,32768, Note_on_c, 0,54.0,75,
2,32768, Note_on_c, 0,47.0,29,
2,32768, Note_off_c, 0,77.0,0,
2, 32769, End_track,,,,
0, 0, End_of_file,,,,
