0, 0, Header, 1, 2, 256,
1, 0, Start_track,,,,
1, 0, Time_signature, 4, 2, 24, 8
1, 0, Key_signature, -3," ""major""",,
1, 0, Tempo, 631577,,,
1, 0, Title_t," ""The Last Post""",,,
1, 0, Text_t," ""Traditional""",,,
1, 19200, Tempo, 681818,,,
1, 19456, Tempo, 731706,,,
1, 19840, Tempo, 800000,,,
1, 20480, Tempo, 800000,,,
1, 20480, Tempo, 631577,,,
1, 39680, Tempo, 681818,,,
1, 39936, Tempo, 731706,,,
1, 40320, Tempo, 800000,,,
1, 40321, End_track,,,,
2, 0, Start_track,,,,
2, 0, Program_c, 0, 0,,
2, 0, Control_c, 0, 121, 0,
2, 0, Control_c, 0, 64, 0,
2, 0, Control_c, 0, 91, 48,
2, 0, Control_c, 0, 10, 51,
2, 0, Control_c, 0, 7, 100,
2,0, Note_on_c, 0,68.0,70,
2, 0, Control_c, 0, 121, 0,
2, 0, Control_c, 0, 64, 0,
2, 0, Control_c, 0, 91, 48,
2, 0, Control_c, 0, 10, 51,
2, 0, Control_c, 0, 7, 100,
2, 0, Title_t," ""Piano""",,,
2,0, Note_on_c, 0,71.0,73,
2,0, Note_on_c, 0,66.0,73,
2,384, Note_on_c, 0,65.0,77,
2,384, Note_off_c, 0,68.0,0,
2,384, Note_off_c, 0,65.0,0,
2,384, Note_on_c, 0,59.0,83,
2,512, Note_off_c, 0,71.0,0,
2,512, Note_on_c, 0,71.0,85,
2,512, Note_on_c, 0,65.0,78,
2,512, Note_off_c, 0,59.0,0,
2,512, Note_on_c, 0,67.0,78,
2,512, Note_off_c, 0,71.0,0,
2,768, Note_on_c, 0,59.0,73,
2,768, Note_off_c, 0,59.0,0,
2,768, Note_on_c, 0,71.0,78,
2,768, Note_off_c, 0,71.0,0,
2,768, Note_off_c, 0,65.0,0,
2,768, Note_on_c, 0,59.0,76,
2,1024, Note_off_c, 0,59.0,0,
2,1024, Note_on_c, 0,71.0,84,
2,1024, Note_on_c, 0,59.0,87,
2,1024, Note_off_c, 0,59.0,0,
2,1024, Note_on_c, 0,65.0,79,
2,1024, Note_on_c, 0,61.0,81,
2,1280, Note_on_c, 0,48.0,84,
2,1280, Note_off_c, 0,65.0,0,
2,1280, Note_off_c, 0,71.0,0,
2,1280, Note_on_c, 0,70.0,81,
2,1280, Note_on_c, 0,59.0,80,
2,1280, Note_on_c, 0,71.0,87,
2,1536, Note_off_c, 0,59.0,0,
2,1536, Note_off_c, 0,71.0,0,
2,1536, Note_on_c, 0,71.0,94,
2,1536, Note_on_c, 0,59.0,81,
2,1536, Note_on_c, 0,68.0,76,
2,1536, Note_off_c, 0,59.0,0,
2,1664, Note_off_c, 0,71.0,0,
2,1664, Note_on_c, 0,71.0,82,
2,1792, Note_off_c, 0,71.0,0,
2,1792, Note_off_c, 0,68.0,0,
2,1792, Note_on_c, 0,71.0,82,
2,1792, Note_off_c, 0,71.0,0,
2,1792, Note_on_c, 0,71.0,90,
2,1792, Note_off_c, 0,71.0,0,
2,2048, Note_on_c, 0,68.0,101,
2,2048, Note_on_c, 0,59.0,90,
2,2048, Note_on_c, 0,65.0,77,
2,2048, Note_off_c, 0,59.0,0,
2,2048, Note_on_c, 0,54.0,79,
2,2048, Note_off_c, 0,54.0,0,
2,2304, Note_on_c, 0,71.0,80,
2,2304, Note_off_c, 0,65.0,0,
2,2304, Note_on_c, 0,65.0,78,
2,2304, Note_off_c, 0,65.0,0,
2,2304, Note_on_c, 0,59.0,76,
2,2304, Note_off_c, 0,71.0,0,
2,2560, Note_on_c, 0,65.0,74,
2,2560, Note_off_c, 0,65.0,0,
2,2560, Note_on_c, 0,65.0,73,
2,2560, Note_off_c, 0,59.0,0,
2,2560, Note_on_c, 0,58.0,74,
2,2560, Note_off_c, 0,65.0,0,
2,2816, Note_off_c, 0,66.0,0,
2,2816, Note_on_c, 0,56.0,77,
2,2816, Note_on_c, 0,65.0,79,
2,2816, Note_off_c, 0,65.0,0,
2,2816, Note_on_c, 0,59.0,73,
2,2816, Note_off_c, 0,59.0,0,
2,3072, Note_on_c, 0,65.0,67,
2,3072, Note_on_c, 0,59.0,78,
2,3072, Note_off_c, 0,65.0,0,
2,3072, Note_off_c, 0,59.0,0,
2,3072, Note_on_c, 0,71.0,81,
2,3072, Note_off_c, 0,61.0,0,
2,3328, Note_on_c, 0,59.0,74,
2,3328, Note_off_c, 0,59.0,0,
2,3328, Note_on_c, 0,59.0,77,
2,3328, Note_off_c, 0,59.0,0,
2,3328, Note_on_c, 0,66.0,74,
2,3328, Note_on_c, 0,65.0,89,
2,3456, Note_on_c, 0,59.0,78,
2,3456, Note_off_c, 0,59.0,0,
2,3584, Note_on_c, 0,59.0,79,
2,3584, Note_off_c, 0,71.0,0,
2,3584, Note_on_c, 0,60.0,69,
2,3584, Note_off_c, 0,59.0,0,
2,3584, Note_off_c, 0,65.0,0,
2,3584, Note_off_c, 0,70.0,0,
2,4096, Note_on_c, 0,65.0,90,
2,4096, Note_off_c, 0,66.0,0,
2,4096, Note_off_c, 0,65.0,0,
2,4096, Note_on_c, 0,71.0,81,
2,4096, Note_on_c, 0,59.0,79,
2,4096, Note_on_c, 0,65.0,83,
2,4480, Note_off_c, 0,68.0,0,
2,4480, Note_on_c, 0,47.0,86,
2,4480, Note_off_c, 0,59.0,0,
2,4480, Note_off_c, 0,65.0,0,
2,4608, Note_on_c, 0,59.0,84,
2,4608, Note_on_c, 0,65.0,79,
2,4608, Note_off_c, 0,71.0,0,
2,4608, Note_off_c, 0,65.0,0,
2,4608, Note_on_c, 0,65.0,76,
2,4608, Note_off_c, 0,59.0,0,
2,4864, Note_on_c, 0,59.0,81,
2,4864, Note_off_c, 0,59.0,0,
2,4864, Note_on_c, 0,70.0,76,
2,4864, Note_on_c, 0,71.0,83,
2,4864, Note_on_c, 0,59.0,86,
2,4864, Note_on_c, 0,63.0,80,
2,5120, Note_off_c, 0,59.0,0,
2,5120, Note_on_c, 0,54.0,76,
2,5120, Note_off_c, 0,71.0,0,
2,5120, Note_on_c, 0,71.0,78,
2,5120, Note_off_c, 0,65.0,0,
2,5120, Note_off_c, 0,71.0,0,
2,5376, Note_on_c, 0,64.0,82,
2,5376, Note_on_c, 0,71.0,72,
2,5376, Note_on_c, 0,53.0,82,
2,5376, Note_on_c, 0,65.0,92,
2,5376, Note_off_c, 0,65.0,0,
2,5376, Note_on_c, 0,65.0,79,
2,5632, Note_on_c, 0,59.0,80,
2,5632, Note_off_c, 0,71.0,0,
2,5632, Note_on_c, 0,71.0,85,
2,5632, Note_off_c, 0,59.0,0,
2,5632, Note_on_c, 0,59.0,79,
2,5632, Note_off_c, 0,59.0,0,
2,5760, Note_off_c, 0,71.0,0,
2,5760, Note_on_c, 0,59.0,90,
2,5888, Note_off_c, 0,59.0,0,
2,5888, Note_on_c, 0,71.0,104,
2,5888, Note_off_c, 0,71.0,0,
2,5888, Note_on_c, 0,59.0,90,
2,5888, Note_on_c, 0,74.0,77,
2,5888, Note_on_c, 0,66.0,78,
2,6144, Note_off_c, 0,66.0,0,
2,6144, Note_off_c, 0,65.0,0,
2,6144, Note_on_c, 0,65.0,81,
2,6144, Note_on_c, 0,71.0,79,
2,6144, Note_off_c, 0,71.0,0,
2,6144, Note_off_c, 0,59.0,0,
2,6400, Note_on_c, 0,66.0,69,
2,6400, Note_on_c, 0,71.0,73,
2,6400, Note_off_c, 0,71.0,0,
2,6400, Note_on_c, 0,59.0,76,
2,6400, Note_off_c, 0,65.0,0,
2,6400, Note_on_c, 0,65.0,74,
2,6656, Note_off_c, 0,65.0,0,
2,6656, Note_off_c, 0,54.0,0,
2,6656, Note_off_c, 0,59.0,0,
2,6656, Note_on_c, 0,65.0,73,
2,6656, Note_off_c, 0,66.0,0,
2,6656, Note_on_c, 0,69.0,77,
2,6912, Note_off_c, 0,65.0,0,
2,6912, Note_on_c, 0,82.0,76,
2,6912, Note_off_c, 0,47.0,0,
2,6912, Note_on_c, 0,54.0,70,
2,6912, Note_on_c, 0,71.0,72,
2,6912, Note_on_c, 0,65.0,78,
2,7168, Note_on_c, 0,59.0,75,
2,7168, Note_off_c, 0,59.0,0,
2,7168, Note_on_c, 0,59.0,77,
2,7168, Note_off_c, 0,59.0,0,
2,7168, Note_off_c, 0,71.0,0,
2,7168, Note_off_c, 0,65.0,0,
2,7424, Note_on_c, 0,65.0,76,
2,7424, Note_on_c, 0,59.0,92,
2,7424, Note_off_c, 0,59.0,0,
2,7424, Note_off_c, 0,65.0,0,
2,7424, Note_on_c, 0,65.0,81,
2,7424, Note_on_c, 0,71.0,78,
2,7552, Note_off_c, 0,71.0,0,
2,7552, Note_off_c, 0,58.0,0,
2,7680, Note_on_c, 0,59.0,77,
2,7680, Note_off_c, 0,59.0,0,
2,7680, Note_on_c, 0,68.0,77,
2,7680, Note_off_c, 0,65.0,0,
2,7680, Note_on_c, 0,71.0,77,
2,7680, Note_off_c, 0,71.0,0,
2,8192, Note_off_c, 0,63.0,0,
2,8192, Note_on_c, 0,65.0,84,
2,8192, Note_on_c, 0,71.0,79,
2,8192, Note_on_c, 0,66.0,88,
2,8192, Note_off_c, 0,71.0,0,
2,8192, Note_off_c, 0,65.0,0,
2,8448, Note_on_c, 0,71.0,74,
2,8448, Note_on_c, 0,58.0,75,
2,8448, Note_off_c, 0,71.0,0,
2,8448, Note_off_c, 0,60.0,0,
2,8448, Note_on_c, 0,59.0,79,
2,8448, Note_on_c, 0,55.0,75,
2,8704, Note_on_c, 0,65.0,69,
2,8704, Note_on_c, 0,71.0,97,
2,8704, Note_off_c, 0,71.0,0,
2,8704, Note_on_c, 0,71.0,88,
2,8704, Note_off_c, 0,65.0,0,
2,8704, Note_off_c, 0,68.0,0,
2,8832, Note_off_c, 0,59.0,0,
2,8832, Note_on_c, 0,59.0,81,
2,8960, Note_off_c, 0,71.0,0,
2,8960, Note_off_c, 0,59.0,0,
2,8960, Note_on_c, 0,59.0,82,
2,9216, Note_off_c, 0,59.0,0,
2,9216, Note_off_c, 0,66.0,0,
2,9216, Note_on_c, 0,71.0,79,
2,9216, Note_on_c, 0,65.0,75,
2,9216, Note_on_c, 0,68.0,74,
2,9472, Note_off_c, 0,71.0,0,
2,9472, Note_on_c, 0,71.0,75,
2,9472, Note_off_c, 0,71.0,0,
2,9472, Note_on_c, 0,66.0,75,
2,9472, Note_on_c, 0,71.0,72,
2,9472, Note_off_c, 0,65.0,0,
2,9728, Note_on_c, 0,65.0,74,
2,9728, Note_off_c, 0,65.0,0,
2,9728, Note_on_c, 0,59.0,92,
2,9728, Note_off_c, 0,59.0,0,
2,9728, Note_on_c, 0,65.0,106,
2,9728, Note_off_c, 0,65.0,0,
2,9856, Note_off_c, 0,54.0,0,
2,9856, Note_on_c, 0,54.0,89,
2,9984, Note_on_c, 0,65.0,78,
2,9984, Note_off_c, 0,71.0,0,
2,9984, Note_off_c, 0,58.0,0,
2,10240, Note_on_c, 0,47.0,80,
2,10240, Note_off_c, 0,65.0,0,
2,10240, Note_on_c, 0,59.0,80,
2,10240, Note_on_c, 0,71.0,84,
2,10240, Note_off_c, 0,71.0,0,
2,10496, Note_off_c, 0,66.0,0,
2,10496, Note_on_c, 0,65.0,82,
2,10496, Note_off_c, 0,65.0,0,
2,10496, Note_on_c, 0,71.0,76,
2,10496, Note_off_c, 0,71.0,0,
2,10496, Note_on_c, 0,65.0,81,
2,10624, Note_off_c, 0,59.0,0,
2,10624, Note_on_c, 0,71.0,89,
2,10752, Note_off_c, 0,71.0,0,
2,10752, Note_off_c, 0,65.0,0,
2,10752, Note_on_c, 0,59.0,86,
2,10752, Note_off_c, 0,59.0,0,
2,10752, Note_on_c, 0,59.0,85,
2,10752, Note_on_c, 0,65.0,85,
2,11136, Note_off_c, 0,65.0,0,
2,11136, Note_on_c, 0,66.0,87,
2,11136, Note_off_c, 0,66.0,0,
2,11136, Note_off_c, 0,59.0,0,
2,11136, Note_on_c, 0,71.0,86,
2,11136, Note_on_c, 0,66.0,83,
2,11264, Note_on_c, 0,65.0,82,
2,11264, Note_off_c, 0,65.0,0,
2,11264, Note_on_c, 0,59.0,80,
2,11264, Note_off_c, 0,66.0,0,
2,11264, Note_off_c, 0,71.0,0,
2,11264, Note_on_c, 0,75.0,76,
2,11648, Note_off_c, 0,59.0,0,
2,11648, Note_off_c, 0,68.0,0,
2,11648, Note_on_c, 0,66.0,86,
2,11648, Note_on_c, 0,71.0,87,
2,11648, Note_off_c, 0,71.0,0,
2,11648, Note_on_c, 0,65.0,91,
2,11776, Note_off_c, 0,65.0,0,
2,11776, Note_on_c, 0,63.0,81,
2,11776, Note_on_c, 0,71.0,95,
2,11776, Note_on_c, 0,59.0,93,
2,11776, Note_off_c, 0,59.0,0,
2,11776, Note_on_c, 0,65.0,81,
2,12032, Note_off_c, 0,65.0,0,
2,12032, Note_on_c, 0,65.0,76,
2,12288, Note_on_c, 0,59.0,78,
2,12288, Note_off_c, 0,53.0,0,
2,12288, Note_off_c, 0,70.0,0,
2,12288, Note_off_c, 0,59.0,0,
2,12288, Note_off_c, 0,65.0,0,
2,12288, Note_on_c, 0,58.0,82,
2,12672, Note_on_c, 0,59.0,75,
2,12672, Note_off_c, 0,54.0,0,
2,12672, Note_off_c, 0,59.0,0,
2,12672, Note_off_c, 0,71.0,0,
2,12672, Note_off_c, 0,58.0,0,
2,12672, Note_on_c, 0,71.0,75,
2,12800, Note_on_c, 0,65.0,82,
2,12800, Note_on_c, 0,59.0,75,
2,12800, Note_on_c, 0,62.0,74,
2,12800, Note_off_c, 0,59.0,0,
2,12800, Note_off_c, 0,71.0,0,
2,12800, Note_on_c, 0,59.0,73,
2,13056, Note_on_c, 0,71.0,81,
2,13056, Note_off_c, 0,66.0,0,
2,13056, Note_off_c, 0,71.0,0,
2,13056, Note_off_c, 0,65.0,0,
2,13056, Note_on_c, 0,65.0,83,
2,13056, Note_off_c, 0,55.0,0,
2,13312, Note_on_c, 0,71.0,85,
2,13312, Note_on_c, 0,66.0,75,
2,13312, Note_off_c, 0,65.0,0,
2,13312, Note_off_c, 0,66.0,0,
2,13312, Note_on_c, 0,65.0,72,
2,13312, Note_off_c, 0,65.0,0,
2,13696, Note_off_c, 0,71.0,0,
2,13696, Note_on_c, 0,68.0,78,
2,13696, Note_off_c, 0,59.0,0,
2,13696, Note_on_c, 0,65.0,80,
2,13696, Note_off_c, 0,65.0,0,
2,13696, Note_off_c, 0,68.0,0,
2,13824, Note_on_c, 0,71.0,69,
2,13824, Note_on_c, 0,60.0,71,
2,13824, Note_on_c, 0,65.0,76,
2,13824, Note_off_c, 0,65.0,0,
2,13824, Note_off_c, 0,71.0,0,
2,13824, Note_on_c, 0,65.0,74,
2,13952, Note_on_c, 0,59.0,74,
2,13952, Note_on_c, 0,71.0,80,
2,14080, Note_off_c, 0,59.0,0,
2,14080, Note_on_c, 0,59.0,78,
2,14080, Note_on_c, 0,66.0,69,
2,14080, Note_off_c, 0,71.0,0,
2,14080, Note_off_c, 0,59.0,0,
2,14080, Note_on_c, 0,54.0,78,
2,14336, Note_off_c, 0,65.0,0,
2,14336, Note_on_c, 0,65.0,91,
2,14336, Note_on_c, 0,59.0,82,
2,14336, Note_off_c, 0,59.0,0,
2,14336, Note_on_c, 0,59.0,82,
2,14336, Note_off_c, 0,66.0,0,
2,14592, Note_off_c, 0,63.0,0,
2,14592, Note_on_c, 0,71.0,92,
2,14592, Note_off_c, 0,65.0,0,
2,14592, Note_on_c, 0,68.0,85,
2,14720, Note_on_c, 0,65.0,79,
2,14720, Note_off_c, 0,59.0,0,
2,14848, Note_on_c, 0,59.0,81,
2,14848, Note_off_c, 0,47.0,0,
2,14848, Note_off_c, 0,65.0,0,
2,14848, Note_on_c, 0,65.0,80,
2,14848, Note_off_c, 0,59.0,0,
2,14848, Note_off_c, 0,68.0,0,
2,14976, Note_on_c, 0,70.0,71,
2,14976, Note_off_c, 0,71.0,0,
2,15104, Note_on_c, 0,59.0,73,
2,15104, Note_on_c, 0,71.0,79,
2,15104, Note_off_c, 0,59.0,0,
2,15104, Note_on_c, 0,59.0,76,
2,15104, Note_on_c, 0,53.0,76,
2,15104, Note_off_c, 0,75.0,0,
2,15232, Note_off_c, 0,70.0,0,
2,15232, Note_off_c, 0,65.0,0,
2,15360, Note_on_c, 0,75.0,81,
2,15360, Note_off_c, 0,59.0,0,
2,15360, Note_off_c, 0,71.0,0,
2,15360, Note_on_c, 0,71.0,83,
2,15360, Note_on_c, 0,59.0,91,
2,15360, Note_on_c, 0,66.0,85,
2,15616, Note_on_c, 0,63.0,83,
2,15616, Note_off_c, 0,59.0,0,
2,15616, Note_off_c, 0,71.0,0,
2,15616, Note_on_c, 0,71.0,73,
2,15616, Note_off_c, 0,71.0,0,
2,15616, Note_on_c, 0,65.0,76,
2,15744, Note_off_c, 0,64.0,0,
2,15744, Note_on_c, 0,71.0,78,
2,15872, Note_off_c, 0,66.0,0,
2,15872, Note_on_c, 0,41.0,79,
2,15872, Note_on_c, 0,70.0,102,
2,15872, Note_on_c, 0,47.0,101,
2,15872, Note_on_c, 0,59.0,83,
2,15872, Note_off_c, 0,65.0,0,
2,16384, Note_on_c, 0,68.0,79,
2,16384, Note_off_c, 0,71.0,0,
2,16384, Note_on_c, 0,49.0,83,
2,16384, Note_on_c, 0,71.0,82,
2,16384, Note_off_c, 0,68.0,0,
2,16384, Note_off_c, 0,59.0,0,
2,16768, Note_on_c, 0,59.0,73,
2,16768, Note_on_c, 0,65.0,74,
2,16768, Note_on_c, 0,52.0,79,
2,16768, Note_off_c, 0,59.0,0,
2,16768, Note_off_c, 0,71.0,0,
2,16768, Note_on_c, 0,71.0,75,
2,16896, Note_off_c, 0,71.0,0,
2,16896, Note_on_c, 0,66.0,73,
2,16896, Note_off_c, 0,65.0,0,
2,16896, Note_on_c, 0,65.0,73,
2,16896, Note_on_c, 0,61.0,84,
2,16896, Note_on_c, 0,59.0,89,
2,17152, Note_on_c, 0,71.0,82,
2,17152, Note_off_c, 0,59.0,0,
2,17152, Note_on_c, 0,68.0,73,
2,17152, Note_off_c, 0,71.0,0,
2,17152, Note_off_c, 0,70.0,0,
2,17152, Note_off_c, 0,65.0,0,
2,17408, Note_on_c, 0,71.0,72,
2,17408, Note_on_c, 0,65.0,77,
2,17408, Note_off_c, 0,65.0,0,
2,17408, Note_on_c, 0,65.0,82,
2,17408, Note_off_c, 0,65.0,0,
2,17408, Note_on_c, 0,59.0,84,
2,17792, Note_on_c, 0,65.0,79,
2,17792, Note_off_c, 0,65.0,0,
2,17792, Note_off_c, 0,59.0,0,
2,17792, Note_on_c, 0,59.0,74,
2,17792, Note_off_c, 0,71.0,0,
2,17792, Note_off_c, 0,59.0,0,
2,17920, Note_off_c, 0,61.0,0,
2,17920, Note_on_c, 0,59.0,73,
2,17920, Note_on_c, 0,65.0,72,
2,17920, Note_on_c, 0,71.0,82,
2,17920, Note_off_c, 0,65.0,0,
2,17920, Note_on_c, 0,65.0,83,
2,18048, Note_off_c, 0,59.0,0,
2,18048, Note_off_c, 0,71.0,0,
2,18176, Note_on_c, 0,59.0,68,
2,18176, Note_off_c, 0,59.0,0,
2,18176, Note_on_c, 0,71.0,77,
2,18176, Note_off_c, 0,66.0,0,
2,18176, Note_off_c, 0,65.0,0,
2,18176, Note_on_c, 0,59.0,92,
2,18432, Note_on_c, 0,65.0,84,
2,18432, Note_off_c, 0,60.0,0,
2,18432, Note_off_c, 0,59.0,0,
2,18432, Note_on_c, 0,59.0,79,
2,18432, Note_off_c, 0,59.0,0,
2,18432, Note_on_c, 0,59.0,84,
2,18688, Note_off_c, 0,71.0,0,
2,18688, Note_on_c, 0,71.0,81,
2,18688, Note_off_c, 0,71.0,0,
2,18688, Note_on_c, 0,71.0,75,
2,18816, Note_off_c, 0,59.0,0,
2,18816, Note_on_c, 0,59.0,79,
2,18944, Note_off_c, 0,59.0,0,
2,18944, Note_off_c, 0,65.0,0,
2,18944, Note_on_c, 0,59.0,81,
2,18944, Note_on_c, 0,65.0,67,
2,18944, Note_on_c, 0,66.0,72,
2,18944, Note_off_c, 0,71.0,0,
2,19072, Note_on_c, 0,71.0,74,
2,19072, Note_off_c, 0,65.0,0,
2,19200, Note_off_c, 0,59.0,0,
2,19200, Note_off_c, 0,68.0,0,
2,19200, Note_off_c, 0,71.0,0,
2,19200, Note_on_c, 0,59.0,72,
2,19200, Note_on_c, 0,65.0,79,
2,19200, Note_off_c, 0,63.0,0,
2,19328, Note_on_c, 0,71.0,77,
2,19328, Note_off_c, 0,59.0,0,
2,19456, Note_on_c, 0,59.0,80,
2,19456, Note_off_c, 0,71.0,0,
2,19456, Note_off_c, 0,65.0,0,
2,19456, Note_off_c, 0,59.0,0,
2,19456, Note_off_c, 0,53.0,0,
2,19456, Note_on_c, 0,68.0,87,
2,19712, Note_on_c, 0,65.0,80,
2,19712, Note_off_c, 0,66.0,0,
2,19712, Note_on_c, 0,66.0,79,
2,19712, Note_on_c, 0,71.0,73,
2,19712, Note_on_c, 0,59.0,74,
2,19712, Note_off_c, 0,65.0,0,
2,19840, Note_off_c, 0,47.0,0,
2,19840, Note_on_c, 0,65.0,77,
2,19968, Note_off_c, 0,68.0,0,
2,19968, Note_off_c, 0,71.0,0,
2,19968, Note_off_c, 0,59.0,0,
2,19968, Note_on_c, 0,71.0,79,
2,19968, Note_off_c, 0,65.0,0,
2,19968, Note_on_c, 0,59.0,78,
2,20480, Note_off_c, 0,71.0,0,
2,20480, Note_on_c, 0,71.0,75,
2,20480, Note_on_c, 0,65.0,76,
2,20480, Note_off_c, 0,71.0,0,
2,20480, Note_off_c, 0,65.0,0,
2,20480, Note_on_c, 0,65.0,85,
2,20864, Note_on_c, 0,71.0,84,
2,20864, Note_off_c, 0,71.0,0,
2,20864, Note_on_c, 0,47.0,86,
2,20864, Note_off_c, 0,59.0,0,
2,20992, Note_on_c, 0,71.0,81,
2,20992, Note_on_c, 0,59.0,78,
2,20992, Note_off_c, 0,59.0,0,
2,20992, Note_off_c, 0,66.0,0,
2,20992, Note_on_c, 0,77.0,74,
2,20992, Note_off_c, 0,65.0,0,
2,21248, Note_on_c, 0,70.0,82,
2,21248, Note_on_c, 0,65.0,73,
2,21248, Note_off_c, 0,65.0,0,
2,21248, Note_on_c, 0,59.0,84,
2,21248, Note_off_c, 0,59.0,0,
2,21248, Note_on_c, 0,65.0,90,
2,21504, Note_off_c, 0,65.0,0,
2,21504, Note_on_c, 0,58.0,83,
2,21504, Note_on_c, 0,59.0,77,
2,21504, Note_on_c, 0,66.0,77,
2,21504, Note_off_c, 0,66.0,0,
2,21504, Note_off_c, 0,59.0,0,
2,21760, Note_on_c, 0,65.0,77,
2,21760, Note_on_c, 0,66.0,76,
2,21760, Note_off_c, 0,65.0,0,
2,21760, Note_on_c, 0,65.0,83,
2,21760, Note_on_c, 0,59.0,88,
2,21760, Note_off_c, 0,59.0,0,
2,22016, Note_off_c, 0,65.0,0,
2,22016, Note_on_c, 0,65.0,75,
2,22016, Note_on_c, 0,59.0,77,
2,22016, Note_off_c, 0,71.0,0,
2,22016, Note_on_c, 0,71.0,83,
2,22016, Note_off_c, 0,65.0,0,
2,22144, Note_on_c, 0,65.0,75,
2,22144, Note_off_c, 0,65.0,0,
2,22272, Note_off_c, 0,59.0,0,
2,22272, Note_on_c, 0,59.0,87,
2,22272, Note_off_c, 0,59.0,0,
2,22272, Note_on_c, 0,68.0,101,
2,22272, Note_off_c, 0,71.0,0,
2,22272, Note_on_c, 0,59.0,88,
2,22528, Note_on_c, 0,71.0,75,
2,22528, Note_off_c, 0,59.0,0,
2,22528, Note_off_c, 0,71.0,0,
2,22528, Note_on_c, 0,71.0,76,
2,22528, Note_off_c, 0,71.0,0,
2,22528, Note_on_c, 0,59.0,79,
2,22784, Note_on_c, 0,60.0,81,
2,22784, Note_off_c, 0,66.0,0,
2,22784, Note_on_c, 0,71.0,76,
2,22784, Note_off_c, 0,59.0,0,
2,22784, Note_off_c, 0,54.0,0,
2,22784, Note_on_c, 0,43.0,74,
2,23040, Note_on_c, 0,65.0,74,
2,23040, Note_off_c, 0,65.0,0,
2,23040, Note_off_c, 0,71.0,0,
2,23040, Note_on_c, 0,59.0,75,
2,23040, Note_on_c, 0,71.0,76,
2,23040, Note_on_c, 0,65.0,76,
2,23296, Note_on_c, 0,54.0,74,
2,23296, Note_off_c, 0,65.0,0,
2,23296, Note_off_c, 0,59.0,0,
2,23296, Note_off_c, 0,71.0,0,
2,23296, Note_on_c, 0,59.0,72,
2,23296, Note_on_c, 0,71.0,80,
2,23552, Note_off_c, 0,71.0,0,
2,23552, Note_off_c, 0,59.0,0,
2,23552, Note_on_c, 0,59.0,87,
2,23552, Note_off_c, 0,59.0,0,
2,23552, Note_on_c, 0,65.0,76,
2,23552, Note_off_c, 0,65.0,0,
2,23808, Note_on_c, 0,57.0,77,
2,23808, Note_on_c, 0,71.0,70,
2,23808, Note_on_c, 0,65.0,92,
2,23808, Note_on_c, 0,45.0,83,
2,23808, Note_on_c, 0,59.0,83,
2,23808, Note_off_c, 0,68.0,0,
2,23936, Note_off_c, 0,59.0,0,
2,23936, Note_off_c, 0,60.0,0,
2,24064, Note_on_c, 0,59.0,69,
2,24064, Note_on_c, 0,68.0,86,
2,24064, Note_off_c, 0,71.0,0,
2,24064, Note_on_c, 0,71.0,82,
2,24064, Note_off_c, 0,71.0,0,
2,24064, Note_off_c, 0,70.0,0,
2,24576, Note_on_c, 0,66.0,80,
2,24576, Note_on_c, 0,71.0,82,
2,24576, Note_off_c, 0,59.0,0,
2,24576, Note_off_c, 0,71.0,0,
2,24576, Note_on_c, 0,70.0,83,
2,24576, Note_on_c, 0,59.0,83,
2,24960, Note_off_c, 0,65.0,0,
2,24960, Note_on_c, 0,71.0,80,
2,24960, Note_off_c, 0,59.0,0,
2,24960, Note_off_c, 0,66.0,0,
2,25088, Note_off_c, 0,71.0,0,
2,25088, Note_on_c, 0,59.0,77,
2,25088, Note_on_c, 0,65.0,76,
2,25088, Note_off_c, 0,59.0,0,
2,25088, Note_off_c, 0,65.0,0,
2,25088, Note_on_c, 0,59.0,79,
2,25344, Note_on_c, 0,65.0,85,
2,25344, Note_off_c, 0,65.0,0,
2,25344, Note_on_c, 0,65.0,87,
2,25344, Note_off_c, 0,59.0,0,
2,25344, Note_on_c, 0,59.0,78,
2,25344, Note_off_c, 0,65.0,0,
2,25600, Note_on_c, 0,71.0,72,
2,25600, Note_off_c, 0,71.0,0,
2,25600, Note_on_c, 0,63.0,73,
2,25600, Note_on_c, 0,71.0,78,
2,25600, Note_off_c, 0,77.0,0,
2,25600, Note_off_c, 0,71.0,0,
2,25856, Note_on_c, 0,71.0,78,
2,25856, Note_on_c, 0,66.0,82,
2,25856, Note_on_c, 0,65.0,87,
2,25856, Note_off_c, 0,71.0,0,
2,25856, Note_on_c, 0,71.0,77,
2,25856, Note_off_c, 0,63.0,0,
2,26112, Note_off_c, 0,71.0,0,
2,26112, Note_on_c, 0,71.0,78,
2,26112, Note_off_c, 0,71.0,0,
2,26112, Note_off_c, 0,66.0,0,
2,26112, Note_off_c, 0,59.0,0,
2,26112, Note_off_c, 0,65.0,0,
2,26240, Note_off_c, 0,68.0,0,
2,26240, Note_on_c, 0,65.0,85,
2,26368, Note_off_c, 0,58.0,0,
2,26368, Note_off_c, 0,65.0,0,
2,26368, Note_on_c, 0,59.0,83,
2,26368, Note_off_c, 0,59.0,0,
2,26368, Note_on_c, 0,71.0,92,
2,26368, Note_off_c, 0,56.0,0,
2,26624, Note_on_c, 0,59.0,104,
2,26624, Note_off_c, 0,71.0,0,
2,26624, Note_on_c, 0,71.0,89,
2,26624, Note_off_c, 0,75.0,0,
2,26624, Note_on_c, 0,65.0,76,
2,26624, Note_off_c, 0,59.0,0,
2,26880, Note_on_c, 0,68.0,81,
2,26880, Note_off_c, 0,47.0,0,
2,26880, Note_on_c, 0,59.0,80,
2,26880, Note_off_c, 0,59.0,0,
2,26880, Note_on_c, 0,47.0,79,
2,26880, Note_on_c, 0,75.0,77,
2,27136, Note_off_c, 0,71.0,0,
2,27136, Note_off_c, 0,65.0,0,
2,27136, Note_on_c, 0,59.0,76,
2,27136, Note_off_c, 0,68.0,0,
2,27136, Note_off_c, 0,59.0,0,
2,27136, Note_on_c, 0,71.0,76,
2,27392, Note_off_c, 0,71.0,0,
2,27392, Note_on_c, 0,59.0,77,
2,27392, Note_on_c, 0,71.0,77,
2,27392, Note_on_c, 0,66.0,76,
2,27392, Note_on_c, 0,42.0,74,
2,27392, Note_off_c, 0,71.0,0,
2,27648, Note_off_c, 0,59.0,0,
2,27648, Note_off_c, 0,67.0,0,
2,27648, Note_on_c, 0,71.0,72,
2,27648, Note_on_c, 0,60.0,76,
2,27648, Note_off_c, 0,71.0,0,
2,27648, Note_off_c, 0,66.0,0,
2,27904, Note_on_c, 0,61.0,84,
2,27904, Note_on_c, 0,66.0,75,
2,27904, Note_on_c, 0,59.0,82,
2,27904, Note_off_c, 0,66.0,0,
2,27904, Note_on_c, 0,53.0,76,
2,27904, Note_off_c, 0,59.0,0,
2,28032, Note_off_c, 0,53.0,0,
2,28032, Note_on_c, 0,59.0,89,
2,28160, Note_on_c, 0,66.0,80,
2,28160, Note_off_c, 0,54.0,0,
2,28160, Note_on_c, 0,58.0,84,
2,28160, Note_off_c, 0,59.0,0,
2,28160, Note_on_c, 0,71.0,69,
2,28160, Note_off_c, 0,62.0,0,
2,28672, Note_on_c, 0,59.0,77,
2,28672, Note_on_c, 0,68.0,73,
2,28672, Note_off_c, 0,71.0,0,
2,28672, Note_on_c, 0,71.0,82,
2,28672, Note_on_c, 0,65.0,78,
2,28672, Note_off_c, 0,68.0,0,
2,28928, Note_off_c, 0,59.0,0,
2,28928, Note_on_c, 0,59.0,84,
2,28928, Note_off_c, 0,47.0,0,
2,28928, Note_off_c, 0,65.0,0,
2,28928, Note_off_c, 0,71.0,0,
2,28928, Note_on_c, 0,65.0,74,
2,29184, Note_on_c, 0,71.0,74,
2,29184, Note_off_c, 0,66.0,0,
2,29184, Note_off_c, 0,65.0,0,
2,29184, Note_off_c, 0,71.0,0,
2,29184, Note_on_c, 0,47.0,73,
2,29184, Note_on_c, 0,65.0,72,
2,29312, Note_off_c, 0,65.0,0,
2,29312, Note_on_c, 0,76.0,72,
2,29440, Note_on_c, 0,65.0,96,
2,29440, Note_off_c, 0,70.0,0,
2,29440, Note_on_c, 0,64.0,88,
2,29696, Note_on_c, 0,71.0,82,
2,29696, Note_off_c, 0,59.0,0,
2,29696, Note_on_c, 0,59.0,84,
2,29696, Note_off_c, 0,59.0,0,
2,29696, Note_off_c, 0,71.0,0,
2,29952, Note_on_c, 0,59.0,83,
2,29952, Note_off_c, 0,75.0,0,
2,29952, Note_off_c, 0,59.0,0,
2,29952, Note_off_c, 0,65.0,0,
2,29952, Note_on_c, 0,71.0,79,
2,29952, Note_on_c, 0,65.0,76,
2,30208, Note_off_c, 0,71.0,0,
2,30208, Note_on_c, 0,59.0,74,
2,30208, Note_off_c, 0,65.0,0,
2,30208, Note_on_c, 0,65.0,75,
2,30208, Note_off_c, 0,59.0,0,
2,30208, Note_on_c, 0,70.0,77,
2,30336, Note_off_c, 0,65.0,0,
2,30336, Note_on_c, 0,59.0,73,
2,30464, Note_on_c, 0,65.0,91,
2,30464, Note_on_c, 0,71.0,107,
2,30464, Note_off_c, 0,59.0,0,
2,30720, Note_on_c, 0,63.0,88,
2,30720, Note_off_c, 0,71.0,0,
2,30720, Note_on_c, 0,53.0,76,
2,30720, Note_on_c, 0,71.0,80,
2,30720, Note_on_c, 0,59.0,81,
2,30976, Note_off_c, 0,65.0,0,
2,30976, Note_off_c, 0,59.0,0,
2,30976, Note_off_c, 0,71.0,0,
2,30976, Note_on_c, 0,71.0,85,
2,30976, Note_on_c, 0,59.0,80,
2,30976, Note_on_c, 0,65.0,71,
2,31104, Note_off_c, 0,71.0,0,
2,31104, Note_off_c, 0,65.0,0,
2,31232, Note_on_c, 0,71.0,76,
2,31232, Note_off_c, 0,71.0,0,
2,31232, Note_off_c, 0,59.0,0,
2,31232, Note_on_c, 0,59.0,82,
2,31232, Note_off_c, 0,70.0,0,
2,31232, Note_on_c, 0,71.0,82,
2,31616, Note_off_c, 0,59.0,0,
2,31616, Note_on_c, 0,59.0,81,
2,31616, Note_off_c, 0,71.0,0,
2,31616, Note_on_c, 0,67.0,83,
2,31616, Note_off_c, 0,59.0,0,
2,31616, Note_on_c, 0,71.0,85,
2,31744, Note_on_c, 0,59.0,86,
2,31744, Note_off_c, 0,59.0,0,
2,31744, Note_off_c, 0,47.0,0,
2,31744, Note_on_c, 0,59.0,83,
2,31744, Note_on_c, 0,65.0,80,
2,31744, Note_off_c, 0,71.0,0,
2,32128, Note_on_c, 0,71.0,79,
2,32128, Note_off_c, 0,65.0,0,
2,32128, Note_on_c, 0,68.0,78,
2,32128, Note_off_c, 0,71.0,0,
2,32128, Note_off_c, 0,59.0,0,
2,32128, Note_on_c, 0,65.0,90,
2,32256, Note_on_c, 0,59.0,88,
2,32256, Note_on_c, 0,71.0,82,
2,32256, Note_off_c, 0,59.0,0,
2,32256, Note_on_c, 0,59.0,81,
2,32256, Note_off_c, 0,59.0,0,
2,32256, Note_on_c, 0,59.0,87,
2,32512, Note_on_c, 0,66.0,87,
2,32512, Note_off_c, 0,71.0,0,
2,32768, Note_off_c, 0,68.0,0,
2,32768, Note_on_c, 0,68.0,76,
2,32768, Note_on_c, 0,71.0,74,
2,32768, Note_off_c, 0,71.0,0,
2,32768, Note_off_c, 0,65.0,0,
2,32768, Note_on_c, 0,71.0,77,
2,33152, Note_off_c, 0,59.0,0,
2,33152, Note_on_c, 0,59.0,80,
2,33152, Note_on_c, 0,65.0,78,
2,33152, Note_off_c, 0,71.0,0,
2,33152, Note_off_c, 0,59.0,0,
2,33152, Note_on_c, 0,71.0,78,
2,33280, Note_off_c, 0,65.0,0,
2,33280, Note_on_c, 0,65.0,82,
2,33280, Note_off_c, 0,58.0,0,
2,33280, Note_on_c, 0,59.0,75,
2,33280, Note_on_c, 0,75.0,73,
2,33280, Note_off_c, 0,65.0,0,
2,33536, Note_on_c, 0,54.0,77,
2,33536, Note_off_c, 0,71.0,0,
2,33536, Note_on_c, 0,65.0,82,
2,33536, Note_on_c, 0,71.0,86,
2,33536, Note_off_c, 0,54.0,0,
2,33536, Note_off_c, 0,71.0,0,
2,33792, Note_off_c, 0,66.0,0,
2,33792, Note_off_c, 0,59.0,0,
2,33792, Note_on_c, 0,59.0,86,
2,33792, Note_off_c, 0,65.0,0,
2,33792, Note_off_c, 0,68.0,0,
2,33792, Note_on_c, 0,68.0,81,
2,34176, Note_on_c, 0,71.0,78,
2,34176, Note_off_c, 0,59.0,0,
2,34176, Note_off_c, 0,71.0,0,
2,34176, Note_on_c, 0,71.0,85,
2,34176, Note_on_c, 0,65.0,79,
2,34176, Note_off_c, 0,65.0,0,
2,34304, Note_on_c, 0,58.0,70,
2,34304, Note_on_c, 0,59.0,69,
2,34304, Note_off_c, 0,71.0,0,
2,34304, Note_on_c, 0,71.0,73,
2,34304, Note_on_c, 0,65.0,75,
2,34304, Note_on_c, 0,72.0,74,
2,34432, Note_off_c, 0,65.0,0,
2,34432, Note_on_c, 0,66.0,78,
2,34560, Note_off_c, 0,71.0,0,
2,34560, Note_on_c, 0,65.0,77,
2,34560, Note_on_c, 0,54.0,69,
2,34560, Note_off_c, 0,59.0,0,
2,34560, Note_on_c, 0,71.0,78,
2,34560, Note_off_c, 0,65.0,0,
2,34816, Note_on_c, 0,65.0,86,
2,34816, Note_on_c, 0,59.0,79,
2,34816, Note_off_c, 0,71.0,0,
2,34816, Note_off_c, 0,59.0,0,
2,34816, Note_on_c, 0,71.0,79,
2,34816, Note_on_c, 0,59.0,89,
2,35072, Note_off_c, 0,71.0,0,
2,35072, Note_off_c, 0,59.0,0,
2,35072, Note_on_c, 0,71.0,83,
2,35072, Note_off_c, 0,66.0,0,
2,35200, Note_off_c, 0,71.0,0,
2,35200, Note_on_c, 0,59.0,74,
2,35328, Note_off_c, 0,59.0,0,
2,35328, Note_on_c, 0,66.0,80,
2,35328, Note_on_c, 0,59.0,80,
2,35328, Note_off_c, 0,59.0,0,
2,35328, Note_on_c, 0,59.0,70,
2,35328, Note_off_c, 0,59.0,0,
2,35456, Note_on_c, 0,50.0,72,
2,35456, Note_off_c, 0,65.0,0,
2,35584, Note_on_c, 0,71.0,78,
2,35584, Note_on_c, 0,65.0,71,
2,35584, Note_off_c, 0,71.0,0,
2,35584, Note_on_c, 0,71.0,78,
2,35584, Note_on_c, 0,59.0,78,
2,35584, Note_off_c, 0,71.0,0,
2,35712, Note_off_c, 0,59.0,0,
2,35712, Note_off_c, 0,65.0,0,
2,35840, Note_on_c, 0,71.0,84,
2,35840, Note_on_c, 0,59.0,92,
2,35840, Note_on_c, 0,65.0,83,
2,35840, Note_off_c, 0,59.0,0,
2,35840, Note_on_c, 0,59.0,83,
2,35840, Note_off_c, 0,59.0,0,
2,36096, Note_off_c, 0,63.0,0,
2,36096, Note_on_c, 0,59.0,78,
2,36096, Note_off_c, 0,71.0,0,
2,36096, Note_on_c, 0,70.0,77,
2,36096, Note_on_c, 0,71.0,77,
2,36096, Note_off_c, 0,65.0,0,
2,36224, Note_off_c, 0,71.0,0,
2,36224, Note_off_c, 0,59.0,0,
2,36352, Note_on_c, 0,65.0,79,
2,36352, Note_off_c, 0,65.0,0,
2,36352, Note_on_c, 0,71.0,101,
2,36352, Note_on_c, 0,65.0,98,
2,36352, Note_off_c, 0,54.0,0,
2,36352, Note_off_c, 0,67.0,0,
2,36864, Note_off_c, 0,65.0,0,
2,36864, Note_on_c, 0,59.0,83,
2,36864, Note_off_c, 0,59.0,0,
2,36864, Note_on_c, 0,47.0,80,
2,36864, Note_off_c, 0,66.0,0,
2,36864, Note_off_c, 0,47.0,0,
2,37248, Note_on_c, 0,59.0,83,
2,37248, Note_on_c, 0,65.0,80,
2,37248, Note_off_c, 0,71.0,0,
2,37248, Note_off_c, 0,65.0,0,
2,37248, Note_off_c, 0,52.0,0,
2,37248, Note_on_c, 0,63.0,75,
2,37376, Note_off_c, 0,59.0,0,
2,37376, Note_on_c, 0,59.0,72,
2,37376, Note_off_c, 0,59.0,0,
2,37376, Note_on_c, 0,65.0,75,
2,37376, Note_off_c, 0,70.0,0,
2,37376, Note_on_c, 0,59.0,78,
2,37632, Note_off_c, 0,63.0,0,
2,37632, Note_off_c, 0,59.0,0,
2,37632, Note_on_c, 0,71.0,77,
2,37632, Note_off_c, 0,65.0,0,
2,37632, Note_on_c, 0,54.0,76,
2,37632, Note_off_c, 0,71.0,0,
2,37888, Note_on_c, 0,59.0,82,
2,37888, Note_on_c, 0,65.0,84,
2,37888, Note_off_c, 0,59.0,0,
2,37888, Note_on_c, 0,59.0,81,
2,37888, Note_off_c, 0,59.0,0,
2,37888, Note_on_c, 0,59.0,77,
2,38272, Note_on_c, 0,71.0,77,
2,38272, Note_off_c, 0,68.0,0,
2,38272, Note_off_c, 0,59.0,0,
2,38272, Note_off_c, 0,54.0,0,
2,38272, Note_on_c, 0,68.0,82,
2,38272, Note_on_c, 0,54.0,79,
2,38400, Note_off_c, 0,71.0,0,
2,38400, Note_on_c, 0,71.0,83,
2,38400, Note_off_c, 0,71.0,0,
2,38400, Note_on_c, 0,71.0,78,
2,38400, Note_on_c, 0,59.0,76,
2,38400, Note_off_c, 0,65.0,0,
2,38528, Note_on_c, 0,65.0,77,
2,38528, Note_off_c, 0,59.0,0,
2,38656, Note_off_c, 0,71.0,0,
2,38656, Note_on_c, 0,59.0,74,
2,38656, Note_off_c, 0,65.0,0,
2,38656, Note_on_c, 0,70.0,81,
2,38656, Note_off_c, 0,54.0,0,
2,38656, Note_off_c, 0,59.0,0,
2,38912, Note_on_c, 0,47.0,81,
2,38912, Note_on_c, 0,66.0,70,
2,38912, Note_on_c, 0,65.0,80,
2,38912, Note_off_c, 0,65.0,0,
2,38912, Note_off_c, 0,68.0,0,
2,38912, Note_on_c, 0,71.0,90,
2,39168, Note_on_c, 0,54.0,79,
2,39168, Note_on_c, 0,59.0,80,
2,39168, Note_off_c, 0,71.0,0,
2,39168, Note_off_c, 0,53.0,0,
2,39296, Note_on_c, 0,65.0,87,
2,39296, Note_off_c, 0,59.0,0,
2,39424, Note_on_c, 0,59.0,82,
2,39424, Note_on_c, 0,71.0,79,
2,39424, Note_off_c, 0,65.0,0,
2,39424, Note_on_c, 0,65.0,87,
2,39424, Note_off_c, 0,66.0,0,
2,39424, Note_off_c, 0,71.0,0,
2,39552, Note_on_c, 0,71.0,84,
2,39552, Note_off_c, 0,71.0,0,
2,39680, Note_on_c, 0,68.0,66,
2,39680, Note_off_c, 0,68.0,0,
2,39680, Note_off_c, 0,59.0,0,
2,39680, Note_on_c, 0,59.0,76,
2,39680, Note_off_c, 0,59.0,0,
2,39680, Note_on_c, 0,71.0,79,
2,39808, Note_off_c, 0,71.0,0,
2,39808, Note_on_c, 0,53.0,72,
2,39936, Note_off_c, 0,65.0,0,
2,39936, Note_on_c, 0,71.0,80,
2,39936, Note_on_c, 0,62.0,87,
2,39936, Note_on_c, 0,65.0,86,
2,39936, Note_on_c, 0,66.0,88,
2,39936, Note_off_c, 0,71.0,0,
2,40192, Note_off_c, 0,65.0,0,
2,40192, Note_on_c, 0,59.0,83,
2,40192, Note_off_c, 0,66.0,0,
2,40192, Note_on_c, 0,65.0,82,
2,40192, Note_on_c, 0,66.0,81,
2,40192, Note_off_c, 0,45.0,0,
2,40320, Note_on_c, 0,68.0,74,
2,40320, Note_off_c, 0,53.0,0,
2,40448, Note_off_c, 0,68.0,0,
2,40448, Note_off_c, 0,70.0,0,
2,40448, Note_off_c, 0,59.0,0,
2,40448, Note_off_c, 0,72.0,0,
2,40448, Note_on_c, 0,59.0,80,
2,40448, Note_off_c, 0,65.0,0,
2,40960, Note_off_c, 0,59.0,0,
2,40960, Note_on_c, 0,65.0,79,
2,40960, Note_on_c, 0,71.0,80,
2, 40961, End_track,,,,
0, 0, End_of_file,,,,
