0, 0, Header, 1, 2, 256
1, 0, Start_track
1, 0, Time_signature, 6, 2, 72, 8
1, 0, Key_signature, 0, "major"
1, 0, Tempo, 375000
1, 0, Title_t, " ""Third Mode Melody"""
1, 0, Text_t, " ""Thomas Tallis"""
1, 1536, Time_signature, 12, 2, 24, 8
1, 4608, Time_signature, 6, 2, 72, 8
1, 6144, Time_signature, 2, 2, 24, 8
1, 6656, Time_signature, 12, 2, 24, 8
1, 9728, Time_signature, 6, 2, 72, 8
1, 12800, Time_signature, 12, 2, 24, 8
1, 15872, Time_signature, 6, 2, 72, 8
1, 17408, Time_signature, 2, 2, 24, 8
1, 17920, Time_signature, 12, 2, 24, 8
1, 20992, Time_signature, 6, 2, 72, 8
1, 22528, Time_signature, 2, 2, 24, 8
1, 23040, Time_signature, 12, 2, 24, 8
1, 26112, Time_signature, 10, 2, 24, 8
1, 28672, Time_signature, 2, 2, 24, 8
1, 29184, Time_signature, 12, 2, 24, 8
1, 32256, Time_signature, 6, 2, 72, 8
1, 33792, Time_signature, 2, 2, 24, 8
1, 34304, Time_signature, 12, 2, 24, 8
1, 37376, Time_signature, 10, 2, 24, 8
1, 39935, Tempo, 500000
1, 39936, Time_signature, 2, 2, 24, 8
1, 40448, Time_signature, 8, 2, 24, 8
1, 42496, Tempo, 750000
1, 42496, Time_signature, 6, 2, 72, 8
1, 44032, Tempo, 375000
1, 44032, Time_signature, 4, 2, 24, 8
1, 44032, Time_signature, 6, 2, 72, 8
1, 45568, Time_signature, 12, 2, 24, 8
1, 48640, Time_signature, 6, 2, 72, 8
1, 50176, Time_signature, 2, 2, 24, 8
1, 50688, Time_signature, 12, 2, 24, 8
1, 53760, Time_signature, 6, 2, 72, 8
1, 56832, Time_signature, 12, 2, 24, 8
1, 59904, Time_signature, 6, 2, 72, 8
1, 61440, Time_signature, 2, 2, 24, 8
1, 61952, Time_signature, 12, 2, 24, 8
1, 65024, Time_signature, 6, 2, 72, 8
1, 66560, Time_signature, 2, 2, 24, 8
1, 67072, Time_signature, 12, 2, 24, 8
1, 70144, Time_signature, 10, 2, 24, 8
1, 72704, Time_signature, 2, 2, 24, 8
1, 73216, Time_signature, 12, 2, 24, 8
1, 76288, Time_signature, 6, 2, 72, 8
1, 77824, Time_signature, 2, 2, 24, 8
1, 78336, Time_signature, 12, 2, 24, 8
1, 81408, Time_signature, 10, 2, 24, 8
1, 83967, Tempo, 500000
1, 83968, Time_signature, 2, 2, 24, 8
1, 84480, Time_signature, 8, 2, 24, 8
1, 86528, Tempo, 750000
1, 86528, Time_signature, 6, 2, 72, 8
1, 86529, End_track
2, 0, Start_track
2, 0, Program_c, 0, 19
2, 0, Control_c, 0, 121, 0
2, 0, Control_c, 0, 64, 0
2, 0, Control_c, 0, 91, 60
2, 0, Control_c, 0, 10, 64
2, 0, Control_c, 0, 7, 100
2, 0, Note_on_c, 0, 64, 69
2, 0, Control_c, 0, 121, 0
2, 0, Control_c, 0, 64, 0
2, 0, Control_c, 0, 91, 60
2, 0, Control_c, 0, 10, 64
2, 0, Control_c, 0, 7, 100
2, 0, Title_t, " ""Organ"""
2, 0, Note_on_c, 0, 55, 68
2, 0, Note_on_c, 0, 52, 67
2, 512, Note_off_c, 0, 64, 0
2, 512, Note_on_c, 0, 67, 84
2, 512, Note_on_c, 0, 64, 76
2, 512, Note_off_c, 0, 55, 0
2, 512, Note_off_c, 0, 52, 0
2, 512, Note_on_c, 0, 59, 79
2, 512, Note_on_c, 0, 52, 76
2, 1024, Note_off_c, 0, 67, 0
2, 1024, Note_off_c, 0, 64, 0
2, 1024, Note_on_c, 0, 67, 75
2, 1024, Note_on_c, 0, 64, 76
2, 1024, Note_off_c, 0, 59, 0
2, 1024, Note_off_c, 0, 52, 0
2, 1024, Note_on_c, 0, 59, 80
2, 1024, Note_on_c, 0, 52, 76
2, 1536, Note_off_c, 0, 67, 0
2, 1536, Note_off_c, 0, 64, 0
2, 1536, Note_on_c, 0, 67, 79
2, 1536, Note_on_c, 0, 64, 79
2, 1536, Note_off_c, 0, 59, 0
2, 1536, Note_off_c, 0, 52, 0
2, 1536, Note_on_c, 0, 59, 80
2, 1536, Note_on_c, 0, 52, 77
2, 3072, Note_off_c, 0, 67, 0
2, 3072, Note_off_c, 0, 64, 0
2, 3072, Note_on_c, 0, 67, 75
2, 3072, Note_on_c, 0, 64, 80
2, 3072, Note_off_c, 0, 59, 0
2, 3072, Note_off_c, 0, 52, 0
2, 3072, Note_on_c, 0, 59, 80
2, 3072, Note_on_c, 0, 55, 77
2, 3584, Note_off_c, 0, 67, 0
2, 3584, Note_off_c, 0, 64, 0
2, 3584, Note_on_c, 0, 69, 80
2, 3584, Note_on_c, 0, 60, 68
2, 3584, Note_off_c, 0, 59, 0
2, 3584, Note_off_c, 0, 55, 0
2, 3584, Note_on_c, 0, 57, 74
2, 3584, Note_on_c, 0, 53, 75
2, 4096, Note_off_c, 0, 69, 0
2, 4096, Note_off_c, 0, 60, 0
2, 4096, Note_on_c, 0, 69, 79
2, 4096, Note_on_c, 0, 62, 83
2, 4096, Note_off_c, 0, 57, 0
2, 4096, Note_off_c, 0, 53, 0
2, 4096, Note_on_c, 0, 57, 76
2, 4096, Note_on_c, 0, 53, 75
2, 4608, Note_off_c, 0, 69, 0
2, 4608, Note_off_c, 0, 62, 0
2, 4608, Note_on_c, 0, 71, 86
2, 4608, Note_on_c, 0, 59, 70
2, 4608, Note_off_c, 0, 57, 0
2, 4608, Note_off_c, 0, 53, 0
2, 4608, Note_on_c, 0, 56, 81
2, 4608, Note_on_c, 0, 52, 71
2, 6144, Note_off_c, 0, 71, 0
2, 6144, Note_off_c, 0, 59, 0
2, 6144, Note_on_c, 0, 71, 79
2, 6144, Note_on_c, 0, 64, 89
2, 6144, Note_off_c, 0, 56, 0
2, 6144, Note_off_c, 0, 52, 0
2, 6144, Note_on_c, 0, 56, 79
2, 6144, Note_on_c, 0, 52, 70
2, 6656, Note_off_c, 0, 71, 0
2, 6656, Note_off_c, 0, 64, 0
2, 6656, Note_on_c, 0, 71, 83
2, 6656, Note_on_c, 0, 64, 74
2, 6656, Note_off_c, 0, 56, 0
2, 6656, Note_off_c, 0, 52, 0
2, 6656, Note_on_c, 0, 56, 77
2, 6656, Note_on_c, 0, 52, 72
2, 8192, Note_off_c, 0, 71, 0
2, 8192, Note_off_c, 0, 64, 0
2, 8192, Note_on_c, 0, 71, 80
2, 8192, Note_on_c, 0, 63, 72
2, 8192, Note_off_c, 0, 56, 0
2, 8192, Note_off_c, 0, 52, 0
2, 8192, Note_on_c, 0, 54, 73
2, 8192, Note_on_c, 0, 47, 73
2, 8704, Note_off_c, 0, 71, 0
2, 8704, Note_off_c, 0, 63, 0
2, 8704, Note_on_c, 0, 71, 76
2, 8704, Note_on_c, 0, 64, 81
2, 8704, Note_off_c, 0, 54, 0
2, 8704, Note_off_c, 0, 47, 0
2, 8704, Note_on_c, 0, 56, 79
2, 8704, Note_on_c, 0, 52, 82
2, 9216, Note_off_c, 0, 71, 0
2, 9216, Note_off_c, 0, 64, 0
2, 9216, Note_on_c, 0, 72, 78
2, 9216, Note_on_c, 0, 64, 81
2, 9216, Note_off_c, 0, 56, 0
2, 9216, Note_off_c, 0, 52, 0
2, 9216, Note_on_c, 0, 57, 77
2, 9216, Note_on_c, 0, 45, 72
2, 9728, Note_off_c, 0, 72, 0
2, 9728, Note_off_c, 0, 64, 0
2, 9728, Note_on_c, 0, 71, 77
2, 9728, Note_on_c, 0, 64, 81
2, 9728, Note_off_c, 0, 57, 0
2, 9728, Note_off_c, 0, 45, 0
2, 9728, Note_on_c, 0, 56, 75
2, 9728, Note_on_c, 0, 52, 84
2, 11264, Note_off_c, 0, 71, 0
2, 11264, Note_off_c, 0, 64, 0
2, 11264, Note_on_c, 0, 64, 65
2, 11264, Note_off_c, 0, 56, 0
2, 11264, Note_off_c, 0, 52, 0
2, 11264, Note_on_c, 0, 55, 74
2, 11264, Note_on_c, 0, 52, 78
2, 11776, Note_off_c, 0, 64, 0
2, 11776, Note_on_c, 0, 71, 84
2, 11776, Note_on_c, 0, 64, 76
2, 11776, Note_off_c, 0, 55, 0
2, 11776, Note_off_c, 0, 52, 0
2, 11776, Note_on_c, 0, 55, 77
2, 11776, Note_on_c, 0, 52, 76
2, 12288, Note_off_c, 0, 71, 0
2, 12288, Note_off_c, 0, 64, 0
2, 12288, Note_on_c, 0, 71, 79
2, 12288, Note_on_c, 0, 64, 76
2, 12288, Note_off_c, 0, 55, 0
2, 12288, Note_off_c, 0, 52, 0
2, 12288, Note_on_c, 0, 55, 77
2, 12288, Note_on_c, 0, 52, 80
2, 12800, Note_off_c, 0, 71, 0
2, 12800, Note_off_c, 0, 64, 0
2, 12800, Note_on_c, 0, 71, 82
2, 12800, Note_on_c, 0, 64, 78
2, 12800, Note_off_c, 0, 55, 0
2, 12800, Note_off_c, 0, 52, 0
2, 12800, Note_on_c, 0, 55, 79
2, 12800, Note_on_c, 0, 52, 76
2, 14336, Note_off_c, 0, 71, 0
2, 14336, Note_off_c, 0, 64, 0
2, 14336, Note_on_c, 0, 67, 66
2, 14336, Note_on_c, 0, 64, 72
2, 14336, Note_off_c, 0, 55, 0
2, 14336, Note_off_c, 0, 52, 0
2, 14336, Note_on_c, 0, 59, 81
2, 14336, Note_on_c, 0, 55, 80
2, 14848, Note_off_c, 0, 67, 0
2, 14848, Note_off_c, 0, 64, 0
2, 14848, Note_on_c, 0, 69, 75
2, 14848, Note_on_c, 0, 64, 75
2, 14848, Note_off_c, 0, 59, 0
2, 14848, Note_off_c, 0, 55, 0
2, 14848, Note_on_c, 0, 57, 73
2, 14848, Note_on_c, 0, 53, 76
2, 15360, Note_off_c, 0, 69, 0
2, 15360, Note_off_c, 0, 64, 0
2, 15360, Note_on_c, 0, 69, 76
2, 15360, Note_on_c, 0, 62, 73
2, 15360, Note_off_c, 0, 57, 0
2, 15360, Note_off_c, 0, 53, 0
2, 15360, Note_on_c, 0, 57, 77
2, 15360, Note_on_c, 0, 53, 75
2, 15872, Note_off_c, 0, 69, 0
2, 15872, Note_off_c, 0, 62, 0
2, 15872, Note_on_c, 0, 71, 84
2, 15872, Note_on_c, 0, 59, 72
2, 15872, Note_off_c, 0, 57, 0
2, 15872, Note_off_c, 0, 53, 0
2, 15872, Note_on_c, 0, 56, 76
2, 15872, Note_on_c, 0, 52, 73
2, 17408, Note_off_c, 0, 71, 0
2, 17408, Note_off_c, 0, 59, 0
2, 17408, Note_on_c, 0, 71, 77
2, 17408, Note_on_c, 0, 64, 90
2, 17408, Note_off_c, 0, 56, 0
2, 17408, Note_off_c, 0, 52, 0
2, 17408, Note_on_c, 0, 56, 74
2, 17408, Note_on_c, 0, 52, 70
2, 17920, Note_off_c, 0, 71, 0
2, 17920, Note_off_c, 0, 64, 0
2, 17920, Note_on_c, 0, 71, 72
2, 17920, Note_on_c, 0, 64, 72
2, 17920, Note_off_c, 0, 56, 0
2, 17920, Note_off_c, 0, 52, 0
2, 17920, Note_on_c, 0, 56, 81
2, 17920, Note_on_c, 0, 52, 74
2, 19456, Note_off_c, 0, 71, 0
2, 19456, Note_off_c, 0, 64, 0
2, 19456, Note_on_c, 0, 71, 75
2, 19456, Note_on_c, 0, 64, 76
2, 19456, Note_off_c, 0, 56, 0
2, 19456, Note_off_c, 0, 52, 0
2, 19456, Note_on_c, 0, 56, 79
2, 19456, Note_on_c, 0, 52, 76
2, 19968, Note_off_c, 0, 71, 0
2, 19968, Note_off_c, 0, 64, 0
2, 19968, Note_on_c, 0, 72, 83
2, 19968, Note_on_c, 0, 64, 75
2, 19968, Note_off_c, 0, 56, 0
2, 19968, Note_off_c, 0, 52, 0
2, 19968, Note_on_c, 0, 57, 77
2, 19968, Note_on_c, 0, 45, 69
2, 20480, Note_off_c, 0, 72, 0
2, 20480, Note_off_c, 0, 64, 0
2, 20480, Note_on_c, 0, 69, 69
2, 20480, Note_on_c, 0, 60, 64
2, 20480, Note_off_c, 0, 57, 0
2, 20480, Note_off_c, 0, 45, 0
2, 20480, Note_on_c, 0, 57, 76
2, 20480, Note_on_c, 0, 45, 74
2, 20992, Note_off_c, 0, 69, 0
2, 20992, Note_off_c, 0, 60, 0
2, 20992, Note_on_c, 0, 71, 80
2, 20992, Note_on_c, 0, 64, 83
2, 20992, Note_off_c, 0, 57, 0
2, 20992, Note_off_c, 0, 45, 0
2, 20992, Note_on_c, 0, 56, 78
2, 20992, Note_on_c, 0, 52, 84
2, 22528, Note_off_c, 0, 71, 0
2, 22528, Note_off_c, 0, 64, 0
2, 22528, Note_on_c, 0, 71, 74
2, 22528, Note_on_c, 0, 64, 75
2, 22528, Note_off_c, 0, 56, 0
2, 22528, Note_off_c, 0, 52, 0
2, 22528, Note_on_c, 0, 55, 78
2, 22528, Note_on_c, 0, 52, 82
2, 23040, Note_off_c, 0, 71, 0
2, 23040, Note_off_c, 0, 64, 0
2, 23040, Note_on_c, 0, 71, 75
2, 23040, Note_on_c, 0, 64, 77
2, 23040, Note_off_c, 0, 55, 0
2, 23040, Note_off_c, 0, 52, 0
2, 23040, Note_on_c, 0, 55, 72
2, 23040, Note_on_c, 0, 52, 74
2, 23552, Note_on_c, 0, 67, 82
2, 23562, Note_off_c, 0, 64, 0
2, 23808, Note_on_c, 0, 72, 77
2, 23808, Note_on_c, 0, 57, 71
2, 23823, Note_off_c, 0, 71, 0
2, 23823, Note_off_c, 0, 55, 0
2, 24012, Note_off_c, 0, 52, 0
2, 24038, Note_off_c, 0, 67, 0
2, 24051, Note_off_c, 0, 72, 0
2, 24051, Note_off_c, 0, 57, 0
2, 88065, End_track
0, 0, End_of_file
