0, 0, Header, 1, 2, 256,
1, 0, Start_track,,,,
1, 0, Time_signature, 1, 2, 24, 8
1, 0, Key_signature, 0," ""major""",,
1, 0, Tempo, 410958,,,
1, 256, Time_signature, 3, 2, 24, 8
1, 1024, Tempo, 394736,,,
1, 1792, Tempo, 389610,,,
1, 4864, Tempo, 387096,,,
1, 7936, Tempo, 384615,,,
1, 11008, Tempo, 379745,,,
1, 13312, Tempo, 375000,,,
1, 16384, Tempo, 370369,,,
1, 18432, Tempo, 387096,,,
1, 19456, Tempo, 365853,,,
1, 20992, Tempo, 361444,,,
1, 22527, Tempo, 357142,,,
1, 24832, Time_signature, 2, 2, 24, 8
1, 25088, Tempo, 1000000,,,
1, 25089, End_track,,,,
2, 0, Start_track,,,,
2, 0, Program_c, 0, 0,,
2, 0, Control_c, 0, 121, 0,
2, 0, Control_c, 0, 64, 0,
2, 0, Control_c, 0, 10, 51,
2, 0, Control_c, 0, 7, 89,
2,0, Note_on_c, 0,64.0,64,
2, 0, Control_c, 0, 121, 0,
2, 0, Control_c, 0, 64, 0,
2, 0, Control_c, 0, 10, 51,
2, 0, Control_c, 0, 7, 89,
2, 0, Title_t," ""Piano""",,,
2,256, Note_on_c, 0,60.0,73,
2,256, Note_on_c, 0,72.0,75,
2,512, Note_on_c, 0,58.0,78,
2,517, Note_on_c, 0,70.0,73,
2,768, Note_on_c, 0,57.0,50,
2,773, Note_on_c, 0,45.0,51,
2,1011, Note_off_c, 0,58.0,0,
2,1024, Note_on_c, 0,47.0,52,
2,1024, Note_off_c, 0,60.0,0,
2,1280, Note_off_c, 0,47.0,0,
2,1280, Note_on_c, 0,71.0,71,
2,1280, Note_on_c, 0,58.0,86,
2,1536, Note_on_c, 0,41.0,62,
2,1536, Note_on_c, 0,47.0,46,
2,1536, Note_off_c, 0,72.0,0,
2,1536, Note_on_c, 0,69.0,62,
2,1536, Note_on_c, 0,54.0,77,
2,1536, Note_on_c, 0,53.0,64,
2,1536, Note_on_c, 0,59.0,47,
2,1792, Note_off_c, 0,57.0,0,
2,1792, Note_off_c, 0,71.0,0,
2,1792, Note_on_c, 0,50.0,50,
2,1792, Note_on_c, 0,56.0,55,
2,1792, Note_on_c, 0,61.0,71,
2,1792, Note_on_c, 0,63.0,68,
2,1792, Note_off_c, 0,50.0,0,
2,2048, Note_on_c, 0,65.0,47,
2,2048, Note_off_c, 0,53.0,0,
2,2048, Note_on_c, 0,43.0,52,
2,2304, Note_off_c, 0,58.0,0,
2,2304, Note_off_c, 0,70.0,0,
2,2304, Note_on_c, 0,74.0,73,
2,2304, Note_off_c, 0,61.0,0,
2,2304, Note_off_c, 0,41.0,0,
2,2304, Note_off_c, 0,56.0,0,
2,2304, Note_off_c, 0,59.0,0,
2,2304, Note_on_c, 0,71.0,71,
2,2560, Note_on_c, 0,57.0,50,
2,2560, Note_on_c, 0,48.0,51,
2,2560, Note_on_c, 0,40.0,52,
2,2560, Note_on_c, 0,60.0,62,
2,2560, Note_on_c, 0,58.0,57,
2,2560, Note_off_c, 0,65.0,0,
2,2560, Note_on_c, 0,46.0,51,
2,2816, Note_off_c, 0,64.0,0,
2,2816, Note_off_c, 0,46.0,0,
2,2816, Note_on_c, 0,72.0,70,
2,3072, Note_off_c, 0,69.0,0,
2,3072, Note_off_c, 0,47.0,0,
2,3072, Note_off_c, 0,58.0,0,
2,3072, Note_on_c, 0,67.0,55,
2,3072, Note_on_c, 0,59.0,66,
2,3072, Note_off_c, 0,48.0,0,
2,3072, Note_off_c, 0,60.0,0,
2,3328, Note_on_c, 0,65.0,67,
2,3328, Note_off_c, 0,67.0,0,
2,3328, Note_on_c, 0,67.0,51,
2,3328, Note_on_c, 0,53.0,70,
2,3328, Note_on_c, 0,46.0,69,
2,3584, Note_off_c, 0,72.0,0,
2,3584, Note_off_c, 0,67.0,0,
2,3584, Note_on_c, 0,51.0,49,
2,3584, Note_on_c, 0,64.0,64,
2,3589, Note_on_c, 0,60.0,69,
2,3840, Note_off_c, 0,60.0,0,
2,3840, Note_off_c, 0,53.0,0,
2,3840, Note_on_c, 0,60.0,50,
2,3840, Note_on_c, 0,70.0,55,
2,3840, Note_on_c, 0,69.0,61,
2,3845, Note_on_c, 0,76.0,86,
2,4083, Note_on_c, 0,61.0,80,
2,4096, Note_off_c, 0,76.0,0,
2,4096, Note_on_c, 0,50.0,55,
2,4096, Note_off_c, 0,60.0,0,
2,4096, Note_off_c, 0,57.0,0,
2,4352, Note_on_c, 0,53.0,59,
2,4352, Note_on_c, 0,60.0,75,
2,4352, Note_on_c, 0,57.0,77,
2,4608, Note_on_c, 0,62.0,56,
2,4608, Note_off_c, 0,71.0,0,
2,4608, Note_off_c, 0,62.0,0,
2,4608, Note_on_c, 0,72.0,52,
2,4608, Note_off_c, 0,74.0,0,
2,4608, Note_off_c, 0,54.0,0,
2,4608, Note_on_c, 0,62.0,56,
2,4864, Note_off_c, 0,53.0,0,
2,4864, Note_on_c, 0,58.0,67,
2,4864, Note_on_c, 0,41.0,74,
2,4864, Note_on_c, 0,71.0,64,
2,4864, Note_off_c, 0,65.0,0,
2,4864, Note_on_c, 0,66.0,53,
2,4864, Note_on_c, 0,67.0,68,
2,5120, Note_off_c, 0,63.0,0,
2,5120, Note_off_c, 0,59.0,0,
2,5120, Note_on_c, 0,56.0,81,
2,5376, Note_off_c, 0,69.0,0,
2,5376, Note_on_c, 0,65.0,62,
2,5376, Note_off_c, 0,70.0,0,
2,5376, Note_off_c, 0,60.0,0,
2,5376, Note_on_c, 0,59.0,53,
2,5376, Note_off_c, 0,72.0,0,
2,5376, Note_on_c, 0,69.0,58,
2,5376, Note_off_c, 0,65.0,0,
2,5632, Note_off_c, 0,41.0,0,
2,5632, Note_off_c, 0,67.0,0,
2,5632, Note_off_c, 0,57.0,0,
2,5632, Note_on_c, 0,44.0,64,
2,5632, Note_on_c, 0,65.0,68,
2,5632, Note_on_c, 0,63.0,55,
2,5632, Note_on_c, 0,48.0,63,
2,5888, Note_off_c, 0,62.0,0,
2,5888, Note_on_c, 0,60.0,72,
2,5888, Note_on_c, 0,47.0,58,
2,6144, Note_off_c, 0,58.0,0,
2,6144, Note_off_c, 0,40.0,0,
2,6144, Note_on_c, 0,57.0,81,
2,6144, Note_on_c, 0,49.0,58,
2,6144, Note_off_c, 0,60.0,0,
2,6144, Note_on_c, 0,58.0,62,
2,6144, Note_on_c, 0,75.0,86,
2,6400, Note_on_c, 0,52.0,56,
2,6400, Note_off_c, 0,65.0,0,
2,6400, Note_on_c, 0,53.0,60,
2,6400, Note_off_c, 0,63.0,0,
2,6400, Note_on_c, 0,62.0,76,
2,6656, Note_on_c, 0,60.0,59,
2,6656, Note_off_c, 0,46.0,0,
2,6656, Note_off_c, 0,53.0,0,
2,6656, Note_off_c, 0,66.0,0,
2,6661, Note_off_c, 0,45.0,0,
2,6912, Note_on_c, 0,72.0,60,
2,6912, Note_off_c, 0,58.0,0,
2,6912, Note_off_c, 0,56.0,0,
2,6912, Note_on_c, 0,42.0,61,
2,6912, Note_off_c, 0,48.0,0,
2,6917, Note_off_c, 0,62.0,0,
2,7155, Note_on_c, 0,67.0,81,
2,7168, Note_off_c, 0,57.0,0,
2,7168, Note_on_c, 0,48.0,93,
2,7168, Note_off_c, 0,64.0,0,
2,7168, Note_on_c, 0,53.0,67,
2,7424, Note_off_c, 0,75.0,0,
2,7424, Note_off_c, 0,53.0,0,
2,7424, Note_on_c, 0,53.0,54,
2,7680, Note_on_c, 0,65.0,70,
2,7680, Note_on_c, 0,64.0,83,
2,7680, Note_on_c, 0,68.0,68,
2,7680, Note_off_c, 0,72.0,0,
2,7680, Note_off_c, 0,65.0,0,
2,7680, Note_on_c, 0,70.0,55,
2,7680, Note_on_c, 0,65.0,62,
2,7936, Note_off_c, 0,70.0,0,
2,7936, Note_off_c, 0,53.0,0,
2,7936, Note_on_c, 0,78.0,65,
2,7936, Note_off_c, 0,69.0,0,
2,7936, Note_on_c, 0,75.0,73,
2,7936, Note_on_c, 0,62.0,71,
2,7936, Note_off_c, 0,42.0,0,
2,8192, Note_off_c, 0,60.0,0,
2,8192, Note_on_c, 0,60.0,57,
2,8192, Note_on_c, 0,72.0,59,
2,8448, Note_on_c, 0,40.0,81,
2,8448, Note_off_c, 0,60.0,0,
2,8448, Note_off_c, 0,61.0,0,
2,8448, Note_on_c, 0,60.0,76,
2,8448, Note_off_c, 0,48.0,0,
2,8448, Note_off_c, 0,50.0,0,
2,8448, Note_off_c, 0,64.0,0,
2,8448, Note_on_c, 0,81.0,57,
2,8704, Note_off_c, 0,60.0,0,
2,8704, Note_off_c, 0,72.0,0,
2,8704, Note_on_c, 0,60.0,64,
2,8704, Note_on_c, 0,72.0,64,
2,8704, Note_off_c, 0,65.0,0,
2,8704, Note_off_c, 0,62.0,0,
2,8704, Note_on_c, 0,65.0,75,
2,8960, Note_on_c, 0,58.0,64,
2,8960, Note_on_c, 0,48.0,60,
2,8960, Note_off_c, 0,58.0,0,
2,9216, Note_off_c, 0,48.0,0,
2,9216, Note_on_c, 0,48.0,79,
2,9216, Note_on_c, 0,69.0,61,
2,9216, Note_off_c, 0,65.0,0,
2,9216, Note_off_c, 0,60.0,0,
2,9216, Note_on_c, 0,57.0,76,
2,9216, Note_off_c, 0,69.0,0,
2,9472, Note_on_c, 0,74.0,72,
2,9472, Note_on_c, 0,62.0,58,
2,9472, Note_off_c, 0,57.0,0,
2,9472, Note_on_c, 0,63.0,81,
2,9472, Note_on_c, 0,60.0,77,
2,9728, Note_off_c, 0,48.0,0,
2,9728, Note_off_c, 0,59.0,0,
2,9728, Note_on_c, 0,45.0,56,
2,9728, Note_on_c, 0,76.0,74,
2,9733, Note_off_c, 0,67.0,0,
2,9984, Note_on_c, 0,56.0,73,
2,9984, Note_on_c, 0,48.0,57,
2,9984, Note_on_c, 0,59.0,62,
2,9984, Note_on_c, 0,57.0,70,
2,9984, Note_off_c, 0,71.0,0,
2,9989, Note_on_c, 0,69.0,96,
2,10227, Note_on_c, 0,41.0,87,
2,10240, Note_on_c, 0,65.0,57,
2,10240, Note_off_c, 0,69.0,0,
2,10240, Note_off_c, 0,45.0,0,
2,10240, Note_off_c, 0,60.0,0,
2,10496, Note_off_c, 0,65.0,0,
2,10496, Note_off_c, 0,52.0,0,
2,10496, Note_on_c, 0,73.0,65,
2,10752, Note_on_c, 0,60.0,85,
2,10752, Note_on_c, 0,66.0,85,
2,10752, Note_on_c, 0,65.0,61,
2,10752, Note_off_c, 0,57.0,0,
2,10752, Note_off_c, 0,59.0,0,
2,10752, Note_off_c, 0,72.0,0,
2,10752, Note_off_c, 0,63.0,0,
2,11008, Note_off_c, 0,65.0,0,
2,11008, Note_on_c, 0,53.0,62,
2,11008, Note_off_c, 0,68.0,0,
2,11008, Note_off_c, 0,62.0,0,
2,11008, Note_on_c, 0,65.0,66,
2,11008, Note_on_c, 0,63.0,73,
2,11008, Note_off_c, 0,43.0,0,
2,11264, Note_off_c, 0,75.0,0,
2,11264, Note_on_c, 0,36.0,78,
2,11264, Note_off_c, 0,63.0,0,
2,11520, Note_off_c, 0,56.0,0,
2,11520, Note_on_c, 0,46.0,69,
2,11520, Note_on_c, 0,55.0,62,
2,11520, Note_on_c, 0,57.0,76,
2,11520, Note_on_c, 0,61.0,85,
2,11520, Note_off_c, 0,65.0,0,
2,11520, Note_on_c, 0,69.0,66,
2,11520, Note_on_c, 0,67.0,61,
2,11776, Note_off_c, 0,67.0,0,
2,11776, Note_off_c, 0,55.0,0,
2,11776, Note_on_c, 0,56.0,66,
2,11776, Note_off_c, 0,53.0,0,
2,11776, Note_on_c, 0,53.0,70,
2,11776, Note_on_c, 0,55.0,71,
2,11776, Note_on_c, 0,72.0,62,
2,12032, Note_on_c, 0,52.0,74,
2,12032, Note_on_c, 0,65.0,76,
2,12032, Note_off_c, 0,52.0,0,
2,12288, Note_on_c, 0,64.0,66,
2,12288, Note_off_c, 0,60.0,0,
2,12288, Note_on_c, 0,60.0,88,
2,12288, Note_off_c, 0,65.0,0,
2,12288, Note_off_c, 0,69.0,0,
2,12288, Note_on_c, 0,52.0,64,
2,12288, Note_off_c, 0,66.0,0,
2,12544, Note_on_c, 0,66.0,70,
2,12544, Note_off_c, 0,76.0,0,
2,12544, Note_on_c, 0,67.0,86,
2,12544, Note_on_c, 0,65.0,64,
2,12544, Note_off_c, 0,60.0,0,
2,12800, Note_on_c, 0,54.0,66,
2,12800, Note_off_c, 0,55.0,0,
2,12800, Note_on_c, 0,59.0,89,
2,12800, Note_off_c, 0,61.0,0,
2,12805, Note_on_c, 0,63.0,66,
2,13056, Note_off_c, 0,53.0,0,
2,13056, Note_off_c, 0,73.0,0,
2,13056, Note_on_c, 0,69.0,68,
2,13056, Note_on_c, 0,50.0,68,
2,13056, Note_off_c, 0,47.0,0,
2,13061, Note_off_c, 0,69.0,0,
2,13299, Note_off_c, 0,64.0,0,
2,13312, Note_on_c, 0,42.0,92,
2,13312, Note_on_c, 0,71.0,103,
2,13312, Note_off_c, 0,48.0,0,
2,13312, Note_off_c, 0,59.0,0,
2,13568, Note_on_c, 0,43.0,75,
2,13568, Note_off_c, 0,66.0,0,
2,13568, Note_off_c, 0,41.0,0,
2,13824, Note_on_c, 0,60.0,63,
2,13824, Note_off_c, 0,63.0,0,
2,13824, Note_on_c, 0,58.0,80,
2,13824, Note_on_c, 0,70.0,91,
2,13824, Note_on_c, 0,48.0,74,
2,13824, Note_on_c, 0,41.0,65,
2,13824, Note_off_c, 0,57.0,0,
2,14080, Note_off_c, 0,67.0,0,
2,14080, Note_off_c, 0,65.0,0,
2,14080, Note_on_c, 0,65.0,73,
2,14080, Note_off_c, 0,54.0,0,
2,14080, Note_on_c, 0,62.0,77,
2,14080, Note_on_c, 0,64.0,83,
2,14080, Note_off_c, 0,65.0,0,
2,14336, Note_on_c, 0,55.0,78,
2,14336, Note_off_c, 0,60.0,0,
2,14336, Note_on_c, 0,67.0,66,
2,14592, Note_on_c, 0,61.0,70,
2,14592, Note_on_c, 0,65.0,92,
2,14592, Note_off_c, 0,42.0,0,
2,14592, Note_on_c, 0,69.0,90,
2,14592, Note_off_c, 0,50.0,0,
2,14592, Note_on_c, 0,53.0,61,
2,14592, Note_off_c, 0,71.0,0,
2,14592, Note_on_c, 0,60.0,71,
2,14848, Note_on_c, 0,59.0,74,
2,14848, Note_off_c, 0,51.0,0,
2,14848, Note_on_c, 0,71.0,75,
2,14848, Note_off_c, 0,48.0,0,
2,14848, Note_off_c, 0,60.0,0,
2,14848, Note_off_c, 0,65.0,0,
2,14848, Note_off_c, 0,58.0,0,
2,15104, Note_on_c, 0,65.0,71,
2,15104, Note_on_c, 0,58.0,66,
2,15104, Note_off_c, 0,58.0,0,
2,15360, Note_off_c, 0,69.0,0,
2,15360, Note_off_c, 0,65.0,0,
2,15360, Note_on_c, 0,75.0,90,
2,15360, Note_off_c, 0,53.0,0,
2,15360, Note_off_c, 0,56.0,0,
2,15360, Note_off_c, 0,62.0,0,
2,15360, Note_on_c, 0,68.0,66,
2,15616, Note_on_c, 0,58.0,91,
2,15616, Note_off_c, 0,70.0,0,
2,15616, Note_on_c, 0,69.0,84,
2,15616, Note_on_c, 0,65.0,71,
2,15616, Note_off_c, 0,69.0,0,
2,15872, Note_off_c, 0,72.0,0,
2,15872, Note_off_c, 0,58.0,0,
2,15872, Note_off_c, 0,65.0,0,
2,15872, Note_on_c, 0,56.0,97,
2,15877, Note_off_c, 0,68.0,0,
2,16128, Note_on_c, 0,65.0,83,
2,16128, Note_off_c, 0,67.0,0,
2,16128, Note_on_c, 0,62.0,61,
2,16128, Note_on_c, 0,63.0,88,
2,16128, Note_on_c, 0,60.0,83,
2,16133, Note_on_c, 0,57.0,67,
2,16371, Note_off_c, 0,65.0,0,
2,16384, Note_off_c, 0,41.0,0,
2,16384, Note_off_c, 0,59.0,0,
2,16384, Note_on_c, 0,54.0,78,
2,16384, Note_on_c, 0,65.0,87,
2,16640, Note_on_c, 0,66.0,113,
2,16640, Note_on_c, 0,70.0,98,
2,16640, Note_off_c, 0,61.0,0,
2,16896, Note_off_c, 0,64.0,0,
2,16896, Note_off_c, 0,65.0,0,
2,16896, Note_on_c, 0,65.0,64,
2,16896, Note_off_c, 0,52.0,0,
2,16896, Note_off_c, 0,62.0,0,
2,16896, Note_on_c, 0,62.0,75,
2,16896, Note_off_c, 0,62.0,0,
2,17152, Note_off_c, 0,70.0,0,
2,17152, Note_off_c, 0,71.0,0,
2,17152, Note_off_c, 0,66.0,0,
2,17152, Note_off_c, 0,57.0,0,
2,17152, Note_off_c, 0,65.0,0,
2,17152, Note_off_c, 0,55.0,0,
2,17152, Note_on_c, 0,65.0,98,
2,17408, Note_on_c, 0,50.0,93,
2,17408, Note_on_c, 0,41.0,66,
2,17408, Note_on_c, 0,55.0,76,
2,17664, Note_on_c, 0,59.0,78,
2,17664, Note_on_c, 0,53.0,90,
2,17664, Note_on_c, 0,77.0,96,
2,17664, Note_on_c, 0,57.0,74,
2,17664, Note_off_c, 0,65.0,0,
2,17664, Note_on_c, 0,62.0,68,
2,17664, Note_on_c, 0,64.0,94,
2,17664, Note_off_c, 0,75.0,0,
2,17920, Note_off_c, 0,63.0,0,
2,17920, Note_off_c, 0,57.0,0,
2,17920, Note_on_c, 0,76.0,105,
2,17920, Note_on_c, 0,67.0,78,
2,17920, Note_on_c, 0,57.0,67,
2,17920, Note_on_c, 0,45.0,68,
2,17920, Note_on_c, 0,70.0,79,
2,17920, Note_on_c, 0,51.0,75,
2,17920, Note_off_c, 0,53.0,0,
2,18432, Note_off_c, 0,70.0,0,
2,18432, Note_on_c, 0,63.0,82,
2,18432, Note_on_c, 0,65.0,85,
2,18432, Note_off_c, 0,54.0,0,
2,18432, Note_on_c, 0,69.0,81,
2,18432, Note_on_c, 0,53.0,91,
2,18432, Note_off_c, 0,60.0,0,
2,18688, Note_off_c, 0,64.0,0,
2,18688, Note_off_c, 0,63.0,0,
2,18688, Note_off_c, 0,65.0,0,
2,18688, Note_off_c, 0,41.0,0,
2,18944, Note_off_c, 0,59.0,0,
2,18944, Note_off_c, 0,74.0,0,
2,18944, Note_on_c, 0,63.0,79,
2,18949, Note_on_c, 0,70.0,98,
2,19200, Note_on_c, 0,74.0,77,
2,19200, Note_off_c, 0,63.0,0,
2,19200, Note_on_c, 0,72.0,91,
2,19205, Note_on_c, 0,60.0,65,
2,19443, Note_on_c, 0,59.0,74,
2,19456, Note_on_c, 0,58.0,72,
2,19456, Note_off_c, 0,72.0,0,
2,19456, Note_off_c, 0,69.0,0,
2,19712, Note_on_c, 0,48.0,72,
2,19712, Note_on_c, 0,64.0,69,
2,19712, Note_on_c, 0,72.0,65,
2,19968, Note_off_c, 0,62.0,0,
2,19968, Note_off_c, 0,49.0,0,
2,19968, Note_off_c, 0,58.0,0,
2,19968, Note_off_c, 0,70.0,0,
2,20224, Note_on_c, 0,70.0,92,
2,20224, Note_on_c, 0,65.0,77,
2,20224, Note_off_c, 0,59.0,0,
2,20480, Note_off_c, 0,77.0,0,
2,20480, Note_on_c, 0,58.0,68,
2,20480, Note_off_c, 0,72.0,0,
2,20480, Note_off_c, 0,48.0,0,
2,20480, Note_on_c, 0,52.0,94,
2,20736, Note_on_c, 0,77.0,81,
2,20736, Note_on_c, 0,62.0,65,
2,20736, Note_on_c, 0,71.0,98,
2,20736, Note_off_c, 0,43.0,0,
2,20736, Note_off_c, 0,74.0,0,
2,20741, Note_off_c, 0,62.0,0,
2,20979, Note_off_c, 0,58.0,0,
2,20992, Note_off_c, 0,65.0,0,
2,20992, Note_off_c, 0,56.0,0,
2,20992, Note_on_c, 0,65.0,87,
2,20992, Note_off_c, 0,44.0,0,
2,21248, Note_off_c, 0,46.0,0,
2,21248, Note_on_c, 0,68.0,68,
2,21248, Note_on_c, 0,74.0,77,
2,21504, Note_off_c, 0,70.0,0,
2,21504, Note_off_c, 0,60.0,0,
2,21504, Note_off_c, 0,57.0,0,
2,21504, Note_off_c, 0,53.0,0,
2,21760, Note_on_c, 0,46.0,74,
2,21760, Note_on_c, 0,73.0,72,
2,21760, Note_off_c, 0,68.0,0,
2,22016, Note_on_c, 0,62.0,70,
2,22016, Note_off_c, 0,71.0,0,
2,22016, Note_on_c, 0,69.0,77,
2,22016, Note_on_c, 0,56.0,89,
2,22016, Note_off_c, 0,64.0,0,
2,22272, Note_on_c, 0,60.0,75,
2,22272, Note_off_c, 0,73.0,0,
2,22272, Note_off_c, 0,74.0,0,
2,22272, Note_on_c, 0,57.0,79,
2,22272, Note_off_c, 0,60.0,0,
2,22277, Note_on_c, 0,53.0,79,
2,22515, Note_off_c, 0,57.0,0,
2,22528, Note_off_c, 0,53.0,0,
2,22528, Note_on_c, 0,72.0,71,
2,22528, Note_on_c, 0,64.0,72,
2,22528, Note_off_c, 0,65.0,0,
2,22528, Note_off_c, 0,51.0,0,
2,22528, Note_off_c, 0,55.0,0,
2,23040, Note_off_c, 0,69.0,0,
2,23050, Note_on_c, 0,55.0,97,
2,23283, Note_on_c, 0,75.0,72,
2,23296, Note_on_c, 0,70.0,70,
2,23296, Note_off_c, 0,62.0,0,
2,23296, Note_off_c, 0,46.0,0,
2,23296, Note_on_c, 0,51.0,70,
2,23296, Note_off_c, 0,70.0,0,
2,23296, Note_on_c, 0,63.0,91,
2,23296, Note_on_c, 0,65.0,109,
2,23808, Note_on_c, 0,68.0,78,
2,23818, Note_on_c, 0,60.0,68,
2,24051, Note_on_c, 0,57.0,67,
2,24064, Note_off_c, 0,57.0,0,
2,24064, Note_on_c, 0,48.0,93,
2,24064, Note_off_c, 0,60.0,0,
2,24064, Note_off_c, 0,67.0,0,
2,24064, Note_on_c, 0,60.0,99,
2,24064, Note_on_c, 0,67.0,76,
2,24064, Note_off_c, 0,51.0,0,
2,24448, Note_on_c, 0,58.0,69,
2,24455, Note_off_c, 0,67.0,0,
2,24569, Note_on_c, 0,57.0,68,
2,24576, Note_off_c, 0,65.0,0,
2,24576, Note_on_c, 0,62.0,79,
2,24576, Note_on_c, 0,59.0,113,
2,24576, Note_off_c, 0,50.0,0,
2,24576, Note_on_c, 0,70.0,111,
2,24576, Note_on_c, 0,53.0,81,
2,24576, Note_on_c, 0,67.0,83,
2,24832, Note_off_c, 0,53.0,0,
2,24832, Note_off_c, 0,52.0,0,
2,24832, Note_on_c, 0,65.0,91,
2,24832, Note_off_c, 0,57.0,0,
2,24832, Note_on_c, 0,71.0,114,
2,24832, Note_off_c, 0,63.0,0,
2,24832, Note_on_c, 0,69.0,84,
2,24832, Note_on_c, 0,53.0,90,
2,25088, Note_on_c, 0,46.0,78,
2,25088, Note_off_c, 0,58.0,0,
2,25088, Note_off_c, 0,67.0,0,
2,25088, Note_on_c, 0,67.0,86,
2, 25089, End_track,,,,
0, 0, End_of_file,,,,
